<?xml version="1.0" encoding="UTF-8" standalone="no"?>
<!-- Created with Inkscape (http://www.inkscape.org/) -->

<svg
   xmlns:dc="http://purl.org/dc/elements/1.1/"
   xmlns:cc="http://creativecommons.org/ns#"
   xmlns:rdf="http://www.w3.org/1999/02/22-rdf-syntax-ns#"
   xmlns:svg="http://www.w3.org/2000/svg"
   xmlns="http://www.w3.org/2000/svg"
   xmlns:sodipodi="http://sodipodi.sourceforge.net/DTD/sodipodi-0.dtd"
   xmlns:inkscape="http://www.inkscape.org/namespaces/inkscape"
   width="320"
   height="220"
   viewBox="0 0 320 220"
   id="svg2"
   version="1.1"
   inkscape:version="0.91 r"
   sodipodi:docname="s2n-logo-github.svg">
  <defs
     id="defs4" />
  <sodipodi:namedview
     id="base"
     pagecolor="#ffffff"
     bordercolor="#666666"
     borderopacity="1.0"
     inkscape:pageopacity="1"
     inkscape:pageshadow="2"
     inkscape:zoom="2.8284271"
     inkscape:cx="219.58505"
     inkscape:cy="77.111016"
     inkscape:document-units="px"
     inkscape:current-layer="g3365"
     showgrid="false"
     showguides="true"
     inkscape:guide-bbox="true"
     inkscape:snap-text-baseline="true"
     inkscape:object-paths="true"
     inkscape:object-nodes="true"
     inkscape:snap-smooth-nodes="true"
     inkscape:snap-nodes="true"
     inkscape:snap-others="true"
     inkscape:window-width="1855"
     inkscape:window-height="1056"
     inkscape:window-x="65"
     inkscape:window-y="24"
     inkscape:window-maximized="1"
     inkscape:snap-to-guides="true"
     fit-margin-top="0"
     fit-margin-left="0"
     fit-margin-right="0"
     fit-margin-bottom="0"
     units="px"
     inkscape:snap-page="true"
     borderlayer="true" />
  <metadata
     id="metadata7">
    <rdf:RDF>
      <cc:Work
         rdf:about="">
        <dc:format>image/svg+xml</dc:format>
        <dc:type
           rdf:resource="http://purl.org/dc/dcmitype/StillImage" />
        <dc:title></dc:title>
      </cc:Work>
    </rdf:RDF>
  </metadata>
  <g
     inkscape:label="Layer 1"
     inkscape:groupmode="layer"
     id="layer1"
     style="display:none"
     transform="translate(-54.5,-243.8622)">
    <g
       style="font-style:normal;font-weight:normal;font-size:40px;line-height:125%;font-family:Sans;letter-spacing:0px;word-spacing:0px;fill:#000000;fill-opacity:1;stroke:none;stroke-width:1px;stroke-linecap:butt;stroke-linejoin:miter;stroke-opacity:1"
       id="text3336">
      <path
         d="m 162.09465,295.80371 0,3.39844 q -1.52344,-0.78125 -3.16406,-1.17188 -1.64063,-0.39062 -3.39844,-0.39062 -2.67578,0 -4.02344,0.82031 -1.32812,0.82031 -1.32812,2.46094 0,1.25 0.95703,1.97265 0.95703,0.70313 3.84766,1.34766 l 1.23046,0.27344 q 3.82813,0.82031 5.42969,2.32422 1.6211,1.48437 1.6211,4.16015 0,3.04688 -2.42188,4.82422 -2.40234,1.77735 -6.62109,1.77735 -1.75782,0 -3.67188,-0.35157 -1.89453,-0.33203 -4.0039,-1.01562 l 0,-3.71094 q 1.99218,1.03516 3.92578,1.5625 1.93359,0.50781 3.82812,0.50781 2.53906,0 3.90625,-0.85937 1.36719,-0.87891 1.36719,-2.46094 0,-1.46484 -0.99609,-2.24609 -0.97657,-0.78125 -4.31641,-1.50391 l -1.25,-0.29297 q -3.33984,-0.70312 -4.82422,-2.14844 -1.48437,-1.46484 -1.48437,-4.0039 0,-3.08594 2.1875,-4.76563 2.1875,-1.67968 6.21093,-1.67968 1.99219,0 3.75,0.29296 1.75782,0.29297 3.24219,0.87891 z"
         style="font-style:normal;font-variant:normal;font-weight:normal;font-stretch:normal;font-family:'Bitstream Vera Sans';-inkscape-font-specification:'Bitstream Vera Sans'"
         id="path3345"
         inkscape:connector-curvature="0" />
      <path
         d="m 173.63762,286.46777 0,40 -3.32031,0 0,-40 3.32031,0 z"
         style="font-style:normal;font-variant:normal;font-weight:normal;font-stretch:normal;font-family:'Bitstream Vera Sans';-inkscape-font-specification:'Bitstream Vera Sans'"
         id="path3347"
         inkscape:connector-curvature="0" />
      <path
         d="m 200.70793,303.83105 0,13.20313 -3.59375,0 0,-13.08594 q 0,-3.10547 -1.21094,-4.64844 -1.21093,-1.54296 -3.63281,-1.54296 -2.91015,0 -4.58984,1.85546 -1.67969,1.85547 -1.67969,5.0586 l 0,12.36328 -3.61328,0 0,-21.875 3.61328,0 0,3.39844 q 1.28906,-1.97266 3.02734,-2.94922 1.75782,-0.97656 4.04297,-0.97656 3.76953,0 5.70313,2.34375 1.93359,2.32421 1.93359,6.85546 z"
         style="font-style:normal;font-variant:normal;font-weight:normal;font-stretch:normal;font-family:'Bitstream Vera Sans';-inkscape-font-specification:'Bitstream Vera Sans'"
         id="path3349"
         inkscape:connector-curvature="0" />
    </g>
  </g>
  <g
     id="g3365"
     inkscape:groupmode="layer"
     inkscape:label="Layer 1 copy"
     transform="translate(-54.5,-243.8622)">
    <g
       transform="matrix(4.4292117,0,0,4.4292117,-1768.428,-973.09222)"
       id="g4206">
      <path
         style="color:#000000;font-style:normal;font-variant:normal;font-weight:normal;font-stretch:normal;font-size:medium;line-height:normal;font-family:sans-serif;text-indent:0;text-align:start;text-decoration:none;text-decoration-line:none;text-decoration-style:solid;text-decoration-color:#000000;letter-spacing:normal;word-spacing:normal;text-transform:none;direction:ltr;block-progression:tb;writing-mode:lr-tb;baseline-shift:baseline;text-anchor:start;white-space:normal;clip-rule:nonzero;display:inline;overflow:visible;visibility:visible;opacity:1;isolation:auto;mix-blend-mode:normal;color-interpolation:sRGB;color-interpolation-filters:linearRGB;solid-color:#000000;solid-opacity:1;fill:#000000;fill-opacity:1;fill-rule:evenodd;stroke:none;stroke-width:4.5;stroke-linecap:butt;stroke-linejoin:miter;stroke-miterlimit:4;stroke-dasharray:none;stroke-dashoffset:0;stroke-opacity:1;color-rendering:auto;image-rendering:auto;shape-rendering:auto;text-rendering:auto;enable-background:accumulate"
         d="m 433.76563,276.47891 27.04683,0 0,46.3155 -27.04683,0 z"
         id="path4212"
         inkscape:connector-curvature="0" />
      <path
         style="color:#000000;font-style:normal;font-variant:normal;font-weight:normal;font-stretch:normal;font-size:medium;line-height:normal;font-family:sans-serif;text-indent:0;text-align:start;text-decoration:none;text-decoration-line:none;text-decoration-style:solid;text-decoration-color:#000000;letter-spacing:normal;word-spacing:normal;text-transform:none;direction:ltr;block-progression:tb;writing-mode:lr-tb;baseline-shift:baseline;text-anchor:start;white-space:normal;clip-rule:nonzero;display:inline;overflow:visible;visibility:visible;opacity:1;isolation:auto;mix-blend-mode:normal;color-interpolation:sRGB;color-interpolation-filters:linearRGB;solid-color:#000000;solid-opacity:1;fill:#000000;fill-opacity:1;fill-rule:evenodd;stroke:none;stroke-width:4.5;stroke-linecap:butt;stroke-linejoin:round;stroke-miterlimit:4;stroke-dasharray:none;stroke-dashoffset:0;stroke-opacity:1;color-rendering:auto;image-rendering:auto;shape-rendering:auto;text-rendering:auto;enable-background:accumulate"
         d="m 423.78878,294.66602 c -3.88761,0 -8.42884,2.78148 -8.42884,6.80273 0,4.53393 4.07861,5.70743 7.48179,6.32421 3.02314,0.54791 5.4938,0.53167 5.55393,2.64872 0.0655,2.30659 -1.94119,3.28711 -4.89343,3.28711 -2.95116,0 -4.74048,-1.96954 -5.47189,-2.98011 l -3.22621,2.66483 c 1.60777,2.22144 4.68386,4.23541 9.05525,4.23493 4.79473,-5.2e-4 8.94699,-2.40225 8.94699,-7.2514 0,-2.42174 -1.52632,-4.30513 -3.22852,-5.22921 -1.7022,-0.92408 -3.51299,-1.33458 -5.16993,-1.61964 -1.96318,-0.33775 -4.90513,-0.33005 -4.90513,-2.12408 0,-2.05859 2.63227,-3.01703 4.51675,-3.01703 1.89803,0 3.8769,1.31553 4.69641,2.48075 l 3.32255,-2.67717 c -2.04238,-2.38219 -4.27903,-3.54464 -8.24971,-3.54464 z"
         id="path4208"
         inkscape:connector-curvature="0"
         sodipodi:nodetypes="sssssccssssssccs" />
      <path
         id="path4210"
         style="font-style:normal;font-variant:normal;font-weight:normal;font-stretch:normal;font-size:medium;line-height:125%;font-family:'Bitstream Vera Sans';-inkscape-font-specification:'Bitstream Vera Sans';letter-spacing:0px;word-spacing:0px;fill:#000000;fill-opacity:1;stroke:none;stroke-width:1px;stroke-linecap:butt;stroke-linejoin:miter;stroke-opacity:1"
         d="m 480.78844,304.41189 0,12.62229 -4.54076,0 0,-12.77027 c 0,-3.36025 -1.04462,-5.3075 -4.02301,-5.3075 -3.6742,0 -5.25939,2.67575 -5.25939,4.8115 l 0,13.26627 -4.49715,0 0,-21.875 4.49715,0 0,2.47173 c 1.54086,-1.90352 3.78214,-2.99907 6.69152,-2.99907 5.37063,0 7.13164,4.29207 7.13164,9.78005 z"
         inkscape:connector-curvature="0"
         sodipodi:nodetypes="sccssscccccss" />
      <path
         style="color:#000000;font-style:normal;font-variant:normal;font-weight:normal;font-stretch:normal;font-size:medium;line-height:normal;font-family:sans-serif;text-indent:0;text-align:start;text-decoration:none;text-decoration-line:none;text-decoration-style:solid;text-decoration-color:#000000;letter-spacing:normal;word-spacing:normal;text-transform:none;direction:ltr;block-progression:tb;writing-mode:lr-tb;baseline-shift:baseline;text-anchor:start;white-space:normal;clip-rule:nonzero;display:inline;overflow:visible;visibility:visible;opacity:1;isolation:auto;mix-blend-mode:normal;color-interpolation:sRGB;color-interpolation-filters:linearRGB;solid-color:#000000;solid-opacity:1;fill:#ffffff;fill-opacity:1;fill-rule:evenodd;stroke:none;stroke-width:4.5;stroke-linecap:butt;stroke-linejoin:miter;stroke-miterlimit:4;stroke-dasharray:none;stroke-dashoffset:0;stroke-opacity:1;color-rendering:auto;image-rendering:auto;shape-rendering:auto;text-rendering:auto;enable-background:accumulate"
         d="m 437.15702,292.31045 3.66576,2.51743 c 1.57723,-2.00641 3.16153,-3.16629 5.85162,-3.16629 3.04199,0 5.74222,1.70784 5.75678,5.14326 0.016,3.76559 -4.61663,6.47366 -7.37995,8.60432 -4.43976,3.42328 -8.34091,6.48308 -8.34091,8.38186 l 0,3.24315 21.23949,0 0,-4.16637 -14.96288,0 c 0.79887,-1.29417 2.47004,-2.40706 5.22531,-4.44699 2.90129,-2.14804 5.71803,-4.06636 7.38131,-7.00894 0.83211,-1.47213 1.27186,-3.13273 1.28121,-4.56295 0.0327,-4.99504 -3.96967,-9.41892 -10.45153,-9.41892 -4.49566,0 -7.30017,2.11427 -9.26621,4.88044 z"
         id="path4216"
         inkscape:connector-curvature="0" />
    </g>
  </g>
</svg>
