<?xml version="1.0" encoding="UTF-8" standalone="no"?>
<!DOCTYPE svg PUBLIC "-//W3C//DTD SVG 1.1//EN"
 "http://www.w3.org/Graphics/SVG/1.1/DTD/svg11.dtd">
<!-- Generated by graphviz version 2.43.0 (0)
 -->
<!-- Title: G Pages: 1 -->
<svg width="625pt" height="1413pt"
 viewBox="0.00 0.00 624.91 1413.44" xmlns="http://www.w3.org/2000/svg" xmlns:xlink="http://www.w3.org/1999/xlink">
<g id="graph0" class="graph" transform="scale(1 1) rotate(0) translate(4 1409.44)">
<title>G</title>
<polygon fill="white" stroke="transparent" points="-4,4 -4,-1409.44 620.91,-1409.44 620.91,4 -4,4"/>
<text text-anchor="start" x="177.69" y="-1382.24" font-family="Times,serif" font-size="24.00">s2n TLS 1.2 State Machine</text>
<!-- INITIAL -->
<g id="node1" class="node">
<title>INITIAL</title>
<polygon fill="none" stroke="black" points="493.02,-1373.44 432.76,-1355.44 493.02,-1337.44 553.28,-1355.44 493.02,-1373.44"/>
<text text-anchor="middle" x="493.02" y="-1351.24" font-family="Times,serif" font-size="14.00">INITIAL</text>
</g>
<!-- CLIENT_HELLO -->
<g id="node2" class="node">
<title>CLIENT_HELLO</title>
<ellipse fill="none" stroke="black" cx="493.02" cy="-1283.44" rx="74.89" ry="18"/>
<text text-anchor="middle" x="493.02" y="-1279.24" font-family="Times,serif" font-size="14.00">CLIENT_HELLO</text>
</g>
<!-- INITIAL&#45;&gt;CLIENT_HELLO -->
<g id="edge1" class="edge">
<title>INITIAL&#45;&gt;CLIENT_HELLO</title>
<path fill="none" stroke="black" d="M493.02,-1337.14C493.02,-1329.43 493.02,-1320.16 493.02,-1311.56"/>
<polygon fill="black" stroke="black" points="496.52,-1311.55 493.02,-1301.55 489.52,-1311.55 496.52,-1311.55"/>
</g>
<!-- SERVER_SESSION_LOOKUP -->
<g id="node3" class="node">
<title>SERVER_SESSION_LOOKUP</title>
<ellipse fill="none" stroke="black" cx="493.02" cy="-1211.44" rx="123.79" ry="18"/>
<text text-anchor="middle" x="493.02" y="-1207.24" font-family="Times,serif" font-size="14.00">SERVER_SESSION_LOOKUP</text>
</g>
<!-- CLIENT_HELLO&#45;&gt;SERVER_SESSION_LOOKUP -->
<g id="edge2" class="edge">
<title>CLIENT_HELLO&#45;&gt;SERVER_SESSION_LOOKUP</title>
<path fill="none" stroke="black" d="M493.02,-1265.14C493.02,-1257.43 493.02,-1248.16 493.02,-1239.56"/>
<polygon fill="black" stroke="black" points="496.52,-1239.55 493.02,-1229.55 489.52,-1239.55 496.52,-1239.55"/>
</g>
<!-- SERVER_HELLO -->
<g id="node4" class="node">
<title>SERVER_HELLO</title>
<ellipse fill="none" stroke="black" cx="493.02" cy="-1139.44" rx="76.92" ry="18"/>
<text text-anchor="middle" x="493.02" y="-1135.24" font-family="Times,serif" font-size="14.00">SERVER_HELLO</text>
</g>
<!-- SERVER_SESSION_LOOKUP&#45;&gt;SERVER_HELLO -->
<g id="edge3" class="edge">
<title>SERVER_SESSION_LOOKUP&#45;&gt;SERVER_HELLO</title>
<path fill="none" stroke="black" d="M493.02,-1193.14C493.02,-1185.43 493.02,-1176.16 493.02,-1167.56"/>
<polygon fill="black" stroke="black" points="496.52,-1167.55 493.02,-1157.55 489.52,-1167.55 496.52,-1167.55"/>
</g>
<!-- SERVER_CERT -->
<g id="node5" class="node">
<title>SERVER_CERT</title>
<ellipse fill="none" stroke="black" cx="361.02" cy="-1067.44" rx="69.61" ry="18"/>
<text text-anchor="middle" x="361.02" y="-1063.24" font-family="Times,serif" font-size="14.00">SERVER_CERT</text>
</g>
<!-- SERVER_HELLO&#45;&gt;SERVER_CERT -->
<g id="edge4" class="edge">
<title>SERVER_HELLO&#45;&gt;SERVER_CERT</title>
<path fill="none" stroke="black" d="M463.39,-1122.73C444.41,-1112.67 419.59,-1099.5 399.14,-1088.66"/>
<polygon fill="black" stroke="black" points="400.56,-1085.45 390.09,-1083.86 397.28,-1091.64 400.56,-1085.45"/>
</g>
<!-- SERVER_NEW_SESSION_TICKET -->
<g id="node6" class="node">
<title>SERVER_NEW_SESSION_TICKET</title>
<ellipse fill="none" stroke="black" cx="414.02" cy="-347.44" rx="144.04" ry="18"/>
<text text-anchor="middle" x="414.02" y="-343.24" font-family="Times,serif" font-size="14.00">SERVER_NEW_SESSION_TICKET</text>
</g>
<!-- SERVER_HELLO&#45;&gt;SERVER_NEW_SESSION_TICKET -->
<g id="edge5" class="edge">
<title>SERVER_HELLO&#45;&gt;SERVER_NEW_SESSION_TICKET</title>
<path fill="none" stroke="black" d="M493.02,-1121.4C493.02,-1094.74 493.02,-1041.56 493.02,-996.44 493.02,-996.44 493.02,-996.44 493.02,-490.44 493.02,-444.68 461.3,-399.9 438.06,-373.23"/>
<polygon fill="black" stroke="black" points="440.45,-370.65 431.16,-365.55 435.24,-375.33 440.45,-370.65"/>
</g>
<!-- SERVER_CHANGE_CIPHER_SPEC -->
<g id="node7" class="node">
<title>SERVER_CHANGE_CIPHER_SPEC</title>
<ellipse fill="none" stroke="black" cx="396.02" cy="-275.44" rx="146.01" ry="18"/>
<text text-anchor="middle" x="396.02" y="-271.24" font-family="Times,serif" font-size="14.00">SERVER_CHANGE_CIPHER_SPEC</text>
</g>
<!-- SERVER_HELLO&#45;&gt;SERVER_CHANGE_CIPHER_SPEC -->
<g id="edge6" class="edge">
<title>SERVER_HELLO&#45;&gt;SERVER_CHANGE_CIPHER_SPEC</title>
<path fill="none" stroke="black" d="M513.2,-1121.95C540.55,-1097.6 586.02,-1049.19 586.02,-996.44 586.02,-996.44 586.02,-996.44 586.02,-418.44 586.02,-378 594.3,-359.31 567.02,-329.44 550.71,-311.6 528.53,-299.7 505.54,-291.79"/>
<polygon fill="black" stroke="black" points="506.6,-288.45 496.01,-288.74 504.47,-295.12 506.6,-288.45"/>
</g>
<!-- SERVER_CERT_STATUS -->
<g id="node8" class="node">
<title>SERVER_CERT_STATUS</title>
<ellipse fill="none" stroke="black" cx="147.02" cy="-995.44" rx="105.91" ry="18"/>
<text text-anchor="middle" x="147.02" y="-991.24" font-family="Times,serif" font-size="14.00">SERVER_CERT_STATUS</text>
</g>
<!-- SERVER_CERT&#45;&gt;SERVER_CERT_STATUS -->
<g id="edge7" class="edge">
<title>SERVER_CERT&#45;&gt;SERVER_CERT_STATUS</title>
<path fill="none" stroke="black" d="M319.5,-1052.86C286.36,-1042.02 239.61,-1026.73 203.14,-1014.8"/>
<polygon fill="black" stroke="black" points="204.22,-1011.47 193.62,-1011.69 202.04,-1018.12 204.22,-1011.47"/>
</g>
<!-- SERVER_KEY -->
<g id="node9" class="node">
<title>SERVER_KEY</title>
<ellipse fill="none" stroke="black" cx="361.02" cy="-923.44" rx="65.81" ry="18"/>
<text text-anchor="middle" x="361.02" y="-919.24" font-family="Times,serif" font-size="14.00">SERVER_KEY</text>
</g>
<!-- SERVER_CERT&#45;&gt;SERVER_KEY -->
<g id="edge8" class="edge">
<title>SERVER_CERT&#45;&gt;SERVER_KEY</title>
<path fill="none" stroke="black" d="M361.02,-1049.32C361.02,-1025.11 361.02,-980.66 361.02,-951.84"/>
<polygon fill="black" stroke="black" points="364.52,-951.63 361.02,-941.63 357.52,-951.63 364.52,-951.63"/>
</g>
<!-- SERVER_CERT_REQ -->
<g id="node10" class="node">
<title>SERVER_CERT_REQ</title>
<ellipse fill="none" stroke="black" cx="267.02" cy="-851.44" rx="91.83" ry="18"/>
<text text-anchor="middle" x="267.02" y="-847.24" font-family="Times,serif" font-size="14.00">SERVER_CERT_REQ</text>
</g>
<!-- SERVER_CERT&#45;&gt;SERVER_CERT_REQ -->
<g id="edge9" class="edge">
<title>SERVER_CERT&#45;&gt;SERVER_CERT_REQ</title>
<path fill="none" stroke="black" d="M348.41,-1049.59C331.67,-1026.43 302.35,-982.88 286.02,-941.44 278.16,-921.51 273.3,-897.72 270.46,-879.75"/>
<polygon fill="black" stroke="black" points="273.89,-879.05 268.98,-869.66 266.97,-880.06 273.89,-879.05"/>
</g>
<!-- SERVER_HELLO_DONE -->
<g id="node11" class="node">
<title>SERVER_HELLO_DONE</title>
<ellipse fill="none" stroke="black" cx="284.02" cy="-779.44" rx="105.88" ry="18"/>
<text text-anchor="middle" x="284.02" y="-775.24" font-family="Times,serif" font-size="14.00">SERVER_HELLO_DONE</text>
</g>
<!-- SERVER_CERT&#45;&gt;SERVER_HELLO_DONE -->
<g id="edge10" class="edge">
<title>SERVER_CERT&#45;&gt;SERVER_HELLO_DONE</title>
<path fill="none" stroke="black" d="M378.24,-1049.64C405.43,-1020.97 453.51,-960.39 436.02,-905.44 424.12,-868.08 414.53,-859.27 385.02,-833.44 369.93,-820.24 350.98,-809.19 333.58,-800.66"/>
<polygon fill="black" stroke="black" points="334.64,-797.29 324.11,-796.18 331.65,-803.62 334.64,-797.29"/>
</g>
<!-- SERVER_NEW_SESSION_TICKET&#45;&gt;SERVER_CHANGE_CIPHER_SPEC -->
<g id="edge11" class="edge">
<title>SERVER_NEW_SESSION_TICKET&#45;&gt;SERVER_CHANGE_CIPHER_SPEC</title>
<path fill="none" stroke="black" d="M409.57,-329.14C407.56,-321.34 405.15,-311.95 402.92,-303.27"/>
<polygon fill="black" stroke="black" points="406.3,-302.36 400.42,-293.55 399.52,-304.11 406.3,-302.36"/>
</g>
<!-- SERVER_FINISHED -->
<g id="node18" class="node">
<title>SERVER_FINISHED</title>
<ellipse fill="none" stroke="black" cx="88.02" cy="-203.44" rx="88.04" ry="18"/>
<text text-anchor="middle" x="88.02" y="-199.24" font-family="Times,serif" font-size="14.00">SERVER_FINISHED</text>
</g>
<!-- SERVER_CHANGE_CIPHER_SPEC&#45;&gt;SERVER_FINISHED -->
<g id="edge28" class="edge">
<title>SERVER_CHANGE_CIPHER_SPEC&#45;&gt;SERVER_FINISHED</title>
<path fill="none" stroke="black" d="M329.57,-259.34C277.73,-247.56 206.08,-231.28 154.29,-219.51"/>
<polygon fill="black" stroke="black" points="155.07,-216.09 144.54,-217.29 153.51,-222.92 155.07,-216.09"/>
</g>
<!-- SERVER_CERT_STATUS&#45;&gt;SERVER_KEY -->
<g id="edge12" class="edge">
<title>SERVER_CERT_STATUS&#45;&gt;SERVER_KEY</title>
<path fill="none" stroke="black" d="M193.45,-979.26C228.06,-967.93 275.27,-952.49 310.76,-940.88"/>
<polygon fill="black" stroke="black" points="312.03,-944.15 320.44,-937.72 309.85,-937.5 312.03,-944.15"/>
</g>
<!-- SERVER_CERT_STATUS&#45;&gt;SERVER_CERT_REQ -->
<g id="edge13" class="edge">
<title>SERVER_CERT_STATUS&#45;&gt;SERVER_CERT_REQ</title>
<path fill="none" stroke="black" d="M161.26,-977.6C182.28,-952.72 221.74,-906.02 246.07,-877.23"/>
<polygon fill="black" stroke="black" points="249.02,-879.17 252.8,-869.27 243.67,-874.65 249.02,-879.17"/>
</g>
<!-- SERVER_CERT_STATUS&#45;&gt;SERVER_HELLO_DONE -->
<g id="edge14" class="edge">
<title>SERVER_CERT_STATUS&#45;&gt;SERVER_HELLO_DONE</title>
<path fill="none" stroke="black" d="M143.96,-977.21C139.32,-945.43 134.13,-876.9 166.02,-833.44 177.9,-817.26 195.87,-805.91 214.23,-798"/>
<polygon fill="black" stroke="black" points="215.55,-801.24 223.54,-794.28 212.96,-794.74 215.55,-801.24"/>
</g>
<!-- SERVER_KEY&#45;&gt;SERVER_CERT_REQ -->
<g id="edge15" class="edge">
<title>SERVER_KEY&#45;&gt;SERVER_CERT_REQ</title>
<path fill="none" stroke="black" d="M339.22,-906.21C326.82,-896.98 311.1,-885.27 297.5,-875.14"/>
<polygon fill="black" stroke="black" points="299.47,-872.24 289.35,-869.08 295.28,-877.86 299.47,-872.24"/>
</g>
<!-- SERVER_KEY&#45;&gt;SERVER_HELLO_DONE -->
<g id="edge16" class="edge">
<title>SERVER_KEY&#45;&gt;SERVER_HELLO_DONE</title>
<path fill="none" stroke="black" d="M367.61,-905.53C373.81,-886.71 380.44,-855.97 368.02,-833.44 360.44,-819.7 347.62,-809.02 334.25,-800.98"/>
<polygon fill="black" stroke="black" points="335.88,-797.87 325.44,-796.06 332.47,-803.99 335.88,-797.87"/>
</g>
<!-- SERVER_CERT_REQ&#45;&gt;SERVER_HELLO_DONE -->
<g id="edge17" class="edge">
<title>SERVER_CERT_REQ&#45;&gt;SERVER_HELLO_DONE</title>
<path fill="none" stroke="black" d="M271.22,-833.14C273.11,-825.34 275.39,-815.95 277.5,-807.27"/>
<polygon fill="black" stroke="black" points="280.91,-808.09 279.86,-797.55 274.1,-806.44 280.91,-808.09"/>
</g>
<!-- CLIENT_CERT -->
<g id="node12" class="node">
<title>CLIENT_CERT</title>
<ellipse fill="none" stroke="black" cx="209.02" cy="-707.44" rx="68.08" ry="18"/>
<text text-anchor="middle" x="209.02" y="-703.24" font-family="Times,serif" font-size="14.00">CLIENT_CERT</text>
</g>
<!-- SERVER_HELLO_DONE&#45;&gt;CLIENT_CERT -->
<g id="edge18" class="edge">
<title>SERVER_HELLO_DONE&#45;&gt;CLIENT_CERT</title>
<path fill="none" stroke="black" d="M265.86,-761.5C256.4,-752.66 244.67,-741.72 234.33,-732.06"/>
<polygon fill="black" stroke="black" points="236.45,-729.26 226.75,-724.99 231.67,-734.37 236.45,-729.26"/>
</g>
<!-- CLIENT_KEY -->
<g id="node13" class="node">
<title>CLIENT_KEY</title>
<ellipse fill="none" stroke="black" cx="217.02" cy="-635.44" rx="64.28" ry="18"/>
<text text-anchor="middle" x="217.02" y="-631.24" font-family="Times,serif" font-size="14.00">CLIENT_KEY</text>
</g>
<!-- SERVER_HELLO_DONE&#45;&gt;CLIENT_KEY -->
<g id="edge19" class="edge">
<title>SERVER_HELLO_DONE&#45;&gt;CLIENT_KEY</title>
<path fill="none" stroke="black" d="M288.87,-761.37C293.2,-742.68 297.29,-712.32 286.02,-689.44 279.52,-676.25 267.98,-665.43 256.18,-657.08"/>
<polygon fill="black" stroke="black" points="257.88,-654.01 247.6,-651.44 254.03,-659.86 257.88,-654.01"/>
</g>
<!-- CLIENT_CERT&#45;&gt;CLIENT_KEY -->
<g id="edge20" class="edge">
<title>CLIENT_CERT&#45;&gt;CLIENT_KEY</title>
<path fill="none" stroke="black" d="M211,-689.14C211.88,-681.43 212.94,-672.16 213.92,-663.56"/>
<polygon fill="black" stroke="black" points="217.41,-663.88 215.06,-653.55 210.45,-663.09 217.41,-663.88"/>
</g>
<!-- CLIENT_CERT_VERIFY -->
<g id="node14" class="node">
<title>CLIENT_CERT_VERIFY</title>
<ellipse fill="none" stroke="black" cx="151.02" cy="-563.44" rx="104.29" ry="18"/>
<text text-anchor="middle" x="151.02" y="-559.24" font-family="Times,serif" font-size="14.00">CLIENT_CERT_VERIFY</text>
</g>
<!-- CLIENT_KEY&#45;&gt;CLIENT_CERT_VERIFY -->
<g id="edge21" class="edge">
<title>CLIENT_KEY&#45;&gt;CLIENT_CERT_VERIFY</title>
<path fill="none" stroke="black" d="M201.38,-617.86C193.2,-609.18 183.02,-598.39 173.97,-588.79"/>
<polygon fill="black" stroke="black" points="176.41,-586.28 167.01,-581.4 171.32,-591.08 176.41,-586.28"/>
</g>
<!-- CLIENT_CHANGE_CIPHER_SPEC -->
<g id="node15" class="node">
<title>CLIENT_CHANGE_CIPHER_SPEC</title>
<ellipse fill="none" stroke="black" cx="155.02" cy="-491.44" rx="144.48" ry="18"/>
<text text-anchor="middle" x="155.02" y="-487.24" font-family="Times,serif" font-size="14.00">CLIENT_CHANGE_CIPHER_SPEC</text>
</g>
<!-- CLIENT_KEY&#45;&gt;CLIENT_CHANGE_CIPHER_SPEC -->
<g id="edge22" class="edge">
<title>CLIENT_KEY&#45;&gt;CLIENT_CHANGE_CIPHER_SPEC</title>
<path fill="none" stroke="black" d="M236.41,-617.97C255.37,-599.79 279.31,-569.89 264.02,-545.44 254.78,-530.68 240.13,-519.93 224.52,-512.13"/>
<polygon fill="black" stroke="black" points="225.8,-508.87 215.25,-507.87 222.88,-515.23 225.8,-508.87"/>
</g>
<!-- CLIENT_CERT_VERIFY&#45;&gt;CLIENT_CHANGE_CIPHER_SPEC -->
<g id="edge23" class="edge">
<title>CLIENT_CERT_VERIFY&#45;&gt;CLIENT_CHANGE_CIPHER_SPEC</title>
<path fill="none" stroke="black" d="M152.01,-545.14C152.45,-537.43 152.98,-528.16 153.47,-519.56"/>
<polygon fill="black" stroke="black" points="156.96,-519.73 154.04,-509.55 149.98,-519.33 156.96,-519.73"/>
</g>
<!-- CLIENT_FINISHED -->
<g id="node16" class="node">
<title>CLIENT_FINISHED</title>
<ellipse fill="none" stroke="black" cx="232.02" cy="-419.44" rx="86.01" ry="18"/>
<text text-anchor="middle" x="232.02" y="-415.24" font-family="Times,serif" font-size="14.00">CLIENT_FINISHED</text>
</g>
<!-- CLIENT_CHANGE_CIPHER_SPEC&#45;&gt;CLIENT_FINISHED -->
<g id="edge24" class="edge">
<title>CLIENT_CHANGE_CIPHER_SPEC&#45;&gt;CLIENT_FINISHED</title>
<path fill="none" stroke="black" d="M173.66,-473.5C183.4,-464.64 195.48,-453.66 206.11,-443.99"/>
<polygon fill="black" stroke="black" points="208.51,-446.55 213.55,-437.23 203.8,-441.37 208.51,-446.55"/>
</g>
<!-- CLIENT_FINISHED&#45;&gt;SERVER_NEW_SESSION_TICKET -->
<g id="edge25" class="edge">
<title>CLIENT_FINISHED&#45;&gt;SERVER_NEW_SESSION_TICKET</title>
<path fill="none" stroke="black" d="M271.51,-403.26C298.09,-393.03 333.42,-379.45 362.25,-368.36"/>
<polygon fill="black" stroke="black" points="363.67,-371.56 371.75,-364.7 361.16,-365.02 363.67,-371.56"/>
</g>
<!-- CLIENT_FINISHED&#45;&gt;SERVER_CHANGE_CIPHER_SPEC -->
<g id="edge26" class="edge">
<title>CLIENT_FINISHED&#45;&gt;SERVER_CHANGE_CIPHER_SPEC</title>
<path fill="none" stroke="black" d="M233.3,-401.17C235.65,-381.43 242.29,-349.31 261.02,-329.44 275.78,-313.78 295.73,-302.67 315.76,-294.82"/>
<polygon fill="black" stroke="black" points="317.08,-298.06 325.26,-291.33 314.67,-291.49 317.08,-298.06"/>
</g>
<!-- APPLICATION_DATA -->
<g id="node17" class="node">
<title>APPLICATION_DATA</title>
<polygon fill="none" stroke="black" points="220.96,-149.67 71.07,-149.67 71.07,0.22 220.96,0.22 220.96,-149.67"/>
<text text-anchor="middle" x="146.02" y="-70.52" font-family="Times,serif" font-size="14.00">APPLICATION_DATA</text>
</g>
<!-- CLIENT_FINISHED&#45;&gt;APPLICATION_DATA -->
<g id="edge27" class="edge">
<title>CLIENT_FINISHED&#45;&gt;APPLICATION_DATA</title>
<path fill="none" stroke="black" d="M229.42,-401.29C223.35,-362.45 207.05,-264.98 185.02,-185.44 182.64,-176.86 179.92,-167.98 177.06,-159.16"/>
<polygon fill="black" stroke="black" points="180.37,-158.02 173.9,-149.63 173.72,-160.22 180.37,-158.02"/>
</g>
<!-- SERVER_FINISHED&#45;&gt;CLIENT_CHANGE_CIPHER_SPEC -->
<g id="edge29" class="edge">
<title>SERVER_FINISHED&#45;&gt;CLIENT_CHANGE_CIPHER_SPEC</title>
<path fill="none" stroke="black" d="M90.89,-221.57C97.56,-260.35 115.18,-357.71 137.02,-437.44 139.39,-446.11 142.4,-455.42 145.27,-463.79"/>
<polygon fill="black" stroke="black" points="142.04,-465.15 148.65,-473.42 148.64,-462.83 142.04,-465.15"/>
</g>
<!-- SERVER_FINISHED&#45;&gt;APPLICATION_DATA -->
<g id="edge30" class="edge">
<title>SERVER_FINISHED&#45;&gt;APPLICATION_DATA</title>
<path fill="none" stroke="black" d="M95.84,-185.35C99.2,-178.01 103.4,-168.84 107.92,-158.95"/>
<polygon fill="black" stroke="black" points="111.18,-160.25 112.16,-149.7 104.81,-157.34 111.18,-160.25"/>
</g>
</g>
</svg>
