<?xml version="1.0" encoding="UTF-8" standalone="no"?>
<!DOCTYPE svg PUBLIC "-//W3C//DTD SVG 1.1//EN"
 "http://www.w3.org/Graphics/SVG/1.1/DTD/svg11.dtd">
<!-- Generated by graphviz version 2.40.1 (20161225.0304)
 -->
<!-- Title: G Pages: 1 -->
<svg width="446pt" height="862pt"
 viewBox="0.00 0.00 445.78 862.00" xmlns="http://www.w3.org/2000/svg" xmlns:xlink="http://www.w3.org/1999/xlink">
<g id="graph0" class="graph" transform="scale(1 1) rotate(0) translate(4 858)">
<title>G</title>
<polygon fill="#ffffff" stroke="transparent" points="-4,4 -4,-858 441.7843,-858 441.7843,4 -4,4"/>
<text text-anchor="start" x="54.3922" y="-830.8" font-family="Times,serif" font-size="24.00" fill="#000000">s2n TLS 1.3 State Machine</text>
<!-- INITIAL -->
<g id="node1" class="node">
<title>INITIAL</title>
<polygon fill="none" stroke="#000000" points="176.7843,-752 106.2334,-734 176.7843,-716 247.3352,-734 176.7843,-752"/>
<text text-anchor="middle" x="176.7843" y="-730.3" font-family="Times,serif" font-size="14.00" fill="#000000">INITIAL</text>
</g>
<!-- CLIENT_HELLO -->
<g id="node2" class="node">
<title>CLIENT_HELLO</title>
<ellipse fill="none" stroke="#000000" cx="176.7843" cy="-594" rx="90.1842" ry="18"/>
<text text-anchor="middle" x="176.7843" y="-590.3" font-family="Times,serif" font-size="14.00" fill="#000000">CLIENT_HELLO</text>
</g>
<!-- INITIAL&#45;&gt;CLIENT_HELLO -->
<g id="edge1" class="edge">
<title>INITIAL&#45;&gt;CLIENT_HELLO</title>
<path fill="none" stroke="#000000" d="M176.7843,-715.9841C176.7843,-692.3829 176.7843,-650.7198 176.7843,-622.7374"/>
<polygon fill="#000000" stroke="#000000" points="180.2844,-622.3913 176.7843,-612.3914 173.2844,-622.3914 180.2844,-622.3913"/>
</g>
<!-- SERVER_HELLO -->
<g id="node3" class="node">
<title>SERVER_HELLO</title>
<ellipse fill="none" stroke="#000000" cx="176.7843" cy="-522" rx="90.9839" ry="18"/>
<text text-anchor="middle" x="176.7843" y="-518.3" font-family="Times,serif" font-size="14.00" fill="#000000">SERVER_HELLO</text>
</g>
<!-- CLIENT_HELLO&#45;&gt;SERVER_HELLO -->
<g id="edge2" class="edge">
<title>CLIENT_HELLO&#45;&gt;SERVER_HELLO</title>
<path fill="none" stroke="#000000" d="M176.7843,-575.8314C176.7843,-568.131 176.7843,-558.9743 176.7843,-550.4166"/>
<polygon fill="#000000" stroke="#000000" points="180.2844,-550.4132 176.7843,-540.4133 173.2844,-550.4133 180.2844,-550.4132"/>
</g>
<!-- SERVER_CHANGE_CIPHER_SPEC -->
<g id="node4" class="node">
<title>SERVER_CHANGE_CIPHER_SPEC</title>
<ellipse fill="none" stroke="#000000" cx="176.7843" cy="-450" rx="176.5689" ry="18"/>
<text text-anchor="middle" x="176.7843" y="-446.3" font-family="Times,serif" font-size="14.00" fill="#000000">SERVER_CHANGE_CIPHER_SPEC</text>
</g>
<!-- SERVER_HELLO&#45;&gt;SERVER_CHANGE_CIPHER_SPEC -->
<g id="edge3" class="edge">
<title>SERVER_HELLO&#45;&gt;SERVER_CHANGE_CIPHER_SPEC</title>
<path fill="none" stroke="#000000" d="M176.7843,-503.8314C176.7843,-496.131 176.7843,-486.9743 176.7843,-478.4166"/>
<polygon fill="#000000" stroke="#000000" points="180.2844,-478.4132 176.7843,-468.4133 173.2844,-478.4133 180.2844,-478.4132"/>
</g>
<!-- ENCRYPTED_EXTENSIONS -->
<g id="node9" class="node">
<title>ENCRYPTED_EXTENSIONS</title>
<ellipse fill="none" stroke="#000000" cx="176.7843" cy="-378" rx="145.6742" ry="18"/>
<text text-anchor="middle" x="176.7843" y="-374.3" font-family="Times,serif" font-size="14.00" fill="#000000">ENCRYPTED_EXTENSIONS</text>
</g>
<!-- SERVER_CHANGE_CIPHER_SPEC&#45;&gt;ENCRYPTED_EXTENSIONS -->
<g id="edge6" class="edge">
<title>SERVER_CHANGE_CIPHER_SPEC&#45;&gt;ENCRYPTED_EXTENSIONS</title>
<path fill="none" stroke="#000000" d="M176.7843,-431.8314C176.7843,-424.131 176.7843,-414.9743 176.7843,-406.4166"/>
<polygon fill="#000000" stroke="#000000" points="180.2844,-406.4132 176.7843,-396.4133 173.2844,-406.4133 180.2844,-406.4132"/>
</g>
<!-- SERVER_CERT -->
<g id="node5" class="node">
<title>SERVER_CERT</title>
<ellipse fill="none" stroke="#000000" cx="176.7843" cy="-306" rx="83.3857" ry="18"/>
<text text-anchor="middle" x="176.7843" y="-302.3" font-family="Times,serif" font-size="14.00" fill="#000000">SERVER_CERT</text>
</g>
<!-- SERVER_CERT_VERIFY -->
<g id="node6" class="node">
<title>SERVER_CERT_VERIFY</title>
<ellipse fill="none" stroke="#000000" cx="176.7843" cy="-234" rx="124.5782" ry="18"/>
<text text-anchor="middle" x="176.7843" y="-230.3" font-family="Times,serif" font-size="14.00" fill="#000000">SERVER_CERT_VERIFY</text>
</g>
<!-- SERVER_CERT&#45;&gt;SERVER_CERT_VERIFY -->
<g id="edge4" class="edge">
<title>SERVER_CERT&#45;&gt;SERVER_CERT_VERIFY</title>
<path fill="none" stroke="#000000" d="M176.7843,-287.8314C176.7843,-280.131 176.7843,-270.9743 176.7843,-262.4166"/>
<polygon fill="#000000" stroke="#000000" points="180.2844,-262.4132 176.7843,-252.4133 173.2844,-262.4133 180.2844,-262.4132"/>
</g>
<!-- SERVER_FINISHED -->
<g id="node10" class="node">
<title>SERVER_FINISHED</title>
<ellipse fill="none" stroke="#000000" cx="176.7843" cy="-162" rx="106.6812" ry="18"/>
<text text-anchor="middle" x="176.7843" y="-158.3" font-family="Times,serif" font-size="14.00" fill="#000000">SERVER_FINISHED</text>
</g>
<!-- SERVER_CERT_VERIFY&#45;&gt;SERVER_FINISHED -->
<g id="edge9" class="edge">
<title>SERVER_CERT_VERIFY&#45;&gt;SERVER_FINISHED</title>
<path fill="none" stroke="#000000" d="M176.7843,-215.8314C176.7843,-208.131 176.7843,-198.9743 176.7843,-190.4166"/>
<polygon fill="#000000" stroke="#000000" points="180.2844,-190.4132 176.7843,-180.4133 173.2844,-190.4133 180.2844,-190.4132"/>
</g>
<!-- CLIENT_CHANGE_CIPHER_SPEC -->
<g id="node7" class="node">
<title>CLIENT_CHANGE_CIPHER_SPEC</title>
<ellipse fill="none" stroke="#000000" cx="176.7843" cy="-90" rx="175.4689" ry="18"/>
<text text-anchor="middle" x="176.7843" y="-86.3" font-family="Times,serif" font-size="14.00" fill="#000000">CLIENT_CHANGE_CIPHER_SPEC</text>
</g>
<!-- CLIENT_FINISHED -->
<g id="node8" class="node">
<title>CLIENT_FINISHED</title>
<ellipse fill="none" stroke="#000000" cx="176.7843" cy="-18" rx="105.8812" ry="18"/>
<text text-anchor="middle" x="176.7843" y="-14.3" font-family="Times,serif" font-size="14.00" fill="#000000">CLIENT_FINISHED</text>
</g>
<!-- CLIENT_CHANGE_CIPHER_SPEC&#45;&gt;CLIENT_FINISHED -->
<g id="edge5" class="edge">
<title>CLIENT_CHANGE_CIPHER_SPEC&#45;&gt;CLIENT_FINISHED</title>
<path fill="none" stroke="#000000" d="M176.7843,-71.8314C176.7843,-64.131 176.7843,-54.9743 176.7843,-46.4166"/>
<polygon fill="#000000" stroke="#000000" points="180.2844,-46.4132 176.7843,-36.4133 173.2844,-46.4133 180.2844,-46.4132"/>
</g>
<!-- ENCRYPTED_EXTENSIONS&#45;&gt;SERVER_CERT -->
<g id="edge8" class="edge">
<title>ENCRYPTED_EXTENSIONS&#45;&gt;SERVER_CERT</title>
<path fill="none" stroke="#000000" d="M176.7843,-359.8314C176.7843,-352.131 176.7843,-342.9743 176.7843,-334.4166"/>
<polygon fill="#000000" stroke="#000000" points="180.2844,-334.4132 176.7843,-324.4133 173.2844,-334.4133 180.2844,-334.4132"/>
</g>
<!-- SERVER_FINISHED&#45;&gt;CLIENT_CHANGE_CIPHER_SPEC -->
<g id="edge7" class="edge">
<title>SERVER_FINISHED&#45;&gt;CLIENT_CHANGE_CIPHER_SPEC</title>
<path fill="none" stroke="#000000" d="M176.7843,-143.8314C176.7843,-136.131 176.7843,-126.9743 176.7843,-118.4166"/>
<polygon fill="#000000" stroke="#000000" points="180.2844,-118.4132 176.7843,-108.4133 173.2844,-118.4133 180.2844,-118.4132"/>
</g>
<!-- APPLICATION_DATA -->
<g id="node11" class="node">
<title>APPLICATION_DATA</title>
<polygon fill="none" stroke="#000000" points="437.7843,-820 265.7843,-820 265.7843,-648 437.7843,-648 437.7843,-820"/>
<text text-anchor="middle" x="351.7843" y="-730.3" font-family="Times,serif" font-size="14.00" fill="#000000">APPLICATION_DATA</text>
</g>
</g>
</svg>
