<?xml version="1.0" encoding="UTF-8" standalone="no"?>
<!DOCTYPE svg PUBLIC "-//W3C//DTD SVG 1.1//EN"
 "http://www.w3.org/Graphics/SVG/1.1/DTD/svg11.dtd">
<!-- Generated by graphviz version 2.40.1 (20161225.0304)
 -->
<!-- Title: G Pages: 1 -->
<svg width="543pt" height="1294pt"
 viewBox="0.00 0.00 543.48 1294.00" xmlns="http://www.w3.org/2000/svg" xmlns:xlink="http://www.w3.org/1999/xlink">
<g id="graph0" class="graph" transform="scale(1 1) rotate(0) translate(4 1290)">
<title>G</title>
<polygon fill="#ffffff" stroke="transparent" points="-4,4 -4,-1290 539.4764,-1290 539.4764,4 -4,4"/>
<text text-anchor="start" x="103.2382" y="-1262.8" font-family="Times,serif" font-size="24.00" fill="#000000">s2n TLS 1.2 State Machine</text>
<!-- INITIAL -->
<g id="node1" class="node">
<title>INITIAL</title>
<polygon fill="none" stroke="#000000" points="90.9919,-1184 20.441,-1166 90.9919,-1148 161.5429,-1166 90.9919,-1184"/>
<text text-anchor="middle" x="90.9919" y="-1162.3" font-family="Times,serif" font-size="14.00" fill="#000000">INITIAL</text>
</g>
<!-- CLIENT_HELLO -->
<g id="node2" class="node">
<title>CLIENT_HELLO</title>
<ellipse fill="none" stroke="#000000" cx="90.9919" cy="-1026" rx="90.1842" ry="18"/>
<text text-anchor="middle" x="90.9919" y="-1022.3" font-family="Times,serif" font-size="14.00" fill="#000000">CLIENT_HELLO</text>
</g>
<!-- INITIAL&#45;&gt;CLIENT_HELLO -->
<g id="edge1" class="edge">
<title>INITIAL&#45;&gt;CLIENT_HELLO</title>
<path fill="none" stroke="#000000" d="M90.9919,-1147.9841C90.9919,-1124.3829 90.9919,-1082.7198 90.9919,-1054.7374"/>
<polygon fill="#000000" stroke="#000000" points="94.492,-1054.3913 90.9919,-1044.3914 87.492,-1054.3914 94.492,-1054.3913"/>
</g>
<!-- SERVER_HELLO -->
<g id="node3" class="node">
<title>SERVER_HELLO</title>
<ellipse fill="none" stroke="#000000" cx="90.9919" cy="-954" rx="90.9839" ry="18"/>
<text text-anchor="middle" x="90.9919" y="-950.3" font-family="Times,serif" font-size="14.00" fill="#000000">SERVER_HELLO</text>
</g>
<!-- CLIENT_HELLO&#45;&gt;SERVER_HELLO -->
<g id="edge2" class="edge">
<title>CLIENT_HELLO&#45;&gt;SERVER_HELLO</title>
<path fill="none" stroke="#000000" d="M90.9919,-1007.8314C90.9919,-1000.131 90.9919,-990.9743 90.9919,-982.4166"/>
<polygon fill="#000000" stroke="#000000" points="94.492,-982.4132 90.9919,-972.4133 87.492,-982.4133 94.492,-982.4132"/>
</g>
<!-- SERVER_CERT -->
<g id="node4" class="node">
<title>SERVER_CERT</title>
<ellipse fill="none" stroke="#000000" cx="283.9919" cy="-882" rx="83.3857" ry="18"/>
<text text-anchor="middle" x="283.9919" y="-878.3" font-family="Times,serif" font-size="14.00" fill="#000000">SERVER_CERT</text>
</g>
<!-- SERVER_HELLO&#45;&gt;SERVER_CERT -->
<g id="edge3" class="edge">
<title>SERVER_HELLO&#45;&gt;SERVER_CERT</title>
<path fill="none" stroke="#000000" d="M133.8249,-938.0209C162.8853,-927.1797 201.4666,-912.7866 232.2457,-901.3043"/>
<polygon fill="#000000" stroke="#000000" points="233.7968,-904.4613 241.9427,-897.6867 231.3501,-897.9028 233.7968,-904.4613"/>
</g>
<!-- SERVER_NEW_SESSION_TICKET -->
<g id="node5" class="node">
<title>SERVER_NEW_SESSION_TICKET</title>
<ellipse fill="none" stroke="#000000" cx="233.9919" cy="-162" rx="173.5692" ry="18"/>
<text text-anchor="middle" x="233.9919" y="-158.3" font-family="Times,serif" font-size="14.00" fill="#000000">SERVER_NEW_SESSION_TICKET</text>
</g>
<!-- SERVER_HELLO&#45;&gt;SERVER_NEW_SESSION_TICKET -->
<g id="edge4" class="edge">
<title>SERVER_HELLO&#45;&gt;SERVER_NEW_SESSION_TICKET</title>
<path fill="none" stroke="#000000" d="M90.9919,-935.8146C90.9919,-908.4983 90.9919,-855.25 90.9919,-810 90.9919,-810 90.9919,-810 90.9919,-306 90.9919,-250.3628 145.4036,-208.5728 187.0995,-184.7168"/>
<polygon fill="#000000" stroke="#000000" points="188.9973,-187.6666 196.046,-179.7567 185.6031,-181.5446 188.9973,-187.6666"/>
</g>
<!-- SERVER_CHANGE_CIPHER_SPEC -->
<g id="node6" class="node">
<title>SERVER_CHANGE_CIPHER_SPEC</title>
<ellipse fill="none" stroke="#000000" cx="251.9919" cy="-90" rx="176.5689" ry="18"/>
<text text-anchor="middle" x="251.9919" y="-86.3" font-family="Times,serif" font-size="14.00" fill="#000000">SERVER_CHANGE_CIPHER_SPEC</text>
</g>
<!-- SERVER_HELLO&#45;&gt;SERVER_CHANGE_CIPHER_SPEC -->
<g id="edge5" class="edge">
<title>SERVER_HELLO&#45;&gt;SERVER_CHANGE_CIPHER_SPEC</title>
<path fill="none" stroke="#000000" d="M78.1898,-935.8796C60.8374,-909.4944 31.9919,-858.3605 31.9919,-810 31.9919,-810 31.9919,-810 31.9919,-234 31.9919,-193.1184 22.8812,-173.6832 50.9919,-144 65.2242,-128.9716 106.9733,-116.5794 148.7601,-107.4737"/>
<polygon fill="#000000" stroke="#000000" points="149.7393,-110.844 158.7967,-105.3474 148.2884,-103.996 149.7393,-110.844"/>
</g>
<!-- SERVER_CERT_STATUS -->
<g id="node7" class="node">
<title>SERVER_CERT_STATUS</title>
<ellipse fill="none" stroke="#000000" cx="283.9919" cy="-810" rx="126.978" ry="18"/>
<text text-anchor="middle" x="283.9919" y="-806.3" font-family="Times,serif" font-size="14.00" fill="#000000">SERVER_CERT_STATUS</text>
</g>
<!-- SERVER_CERT&#45;&gt;SERVER_CERT_STATUS -->
<g id="edge6" class="edge">
<title>SERVER_CERT&#45;&gt;SERVER_CERT_STATUS</title>
<path fill="none" stroke="#000000" d="M283.9919,-863.8314C283.9919,-856.131 283.9919,-846.9743 283.9919,-838.4166"/>
<polygon fill="#000000" stroke="#000000" points="287.492,-838.4132 283.9919,-828.4133 280.492,-838.4133 287.492,-838.4132"/>
</g>
<!-- SERVER_KEY -->
<g id="node8" class="node">
<title>SERVER_KEY</title>
<ellipse fill="none" stroke="#000000" cx="325.9919" cy="-738" rx="75.2868" ry="18"/>
<text text-anchor="middle" x="325.9919" y="-734.3" font-family="Times,serif" font-size="14.00" fill="#000000">SERVER_KEY</text>
</g>
<!-- SERVER_CERT&#45;&gt;SERVER_KEY -->
<g id="edge7" class="edge">
<title>SERVER_CERT&#45;&gt;SERVER_KEY</title>
<path fill="none" stroke="#000000" d="M351.992,-871.5897C377.7217,-863.9791 404.51,-850.8049 419.9919,-828 428.9788,-814.7623 428.0069,-805.8477 419.9919,-792 411.0862,-776.6133 395.9544,-765.2294 380.4037,-756.9893"/>
<polygon fill="#000000" stroke="#000000" points="381.7625,-753.7574 371.2432,-752.4944 378.6789,-760.0417 381.7625,-753.7574"/>
</g>
<!-- SERVER_CERT_REQ -->
<g id="node9" class="node">
<title>SERVER_CERT_REQ</title>
<ellipse fill="none" stroke="#000000" cx="419.9919" cy="-666" rx="109.381" ry="18"/>
<text text-anchor="middle" x="419.9919" y="-662.3" font-family="Times,serif" font-size="14.00" fill="#000000">SERVER_CERT_REQ</text>
</g>
<!-- SERVER_CERT&#45;&gt;SERVER_CERT_REQ -->
<g id="edge8" class="edge">
<title>SERVER_CERT&#45;&gt;SERVER_CERT_REQ</title>
<path fill="none" stroke="#000000" d="M341.9339,-868.9134C380.2729,-858.9464 425.5221,-844.2114 436.9919,-828 465.2373,-788.0781 447.5655,-728.1691 433.1227,-693.4926"/>
<polygon fill="#000000" stroke="#000000" points="436.1914,-691.7733 428.9873,-684.0047 429.7744,-694.5703 436.1914,-691.7733"/>
</g>
<!-- SERVER_HELLO_DONE -->
<g id="node10" class="node">
<title>SERVER_HELLO_DONE</title>
<ellipse fill="none" stroke="#000000" cx="263.9919" cy="-594" rx="126.1777" ry="18"/>
<text text-anchor="middle" x="263.9919" y="-590.3" font-family="Times,serif" font-size="14.00" fill="#000000">SERVER_HELLO_DONE</text>
</g>
<!-- SERVER_CERT&#45;&gt;SERVER_HELLO_DONE -->
<g id="edge9" class="edge">
<title>SERVER_CERT&#45;&gt;SERVER_HELLO_DONE</title>
<path fill="none" stroke="#000000" d="M215.9918,-871.5897C190.2621,-863.9791 163.4738,-850.8049 147.9919,-828 99.7418,-756.9275 186.4372,-662.8934 234.7704,-618.808"/>
<polygon fill="#000000" stroke="#000000" points="237.3434,-621.2019 242.4559,-611.9222 232.6724,-615.9883 237.3434,-621.2019"/>
</g>
<!-- SERVER_NEW_SESSION_TICKET&#45;&gt;SERVER_CHANGE_CIPHER_SPEC -->
<g id="edge10" class="edge">
<title>SERVER_NEW_SESSION_TICKET&#45;&gt;SERVER_CHANGE_CIPHER_SPEC</title>
<path fill="none" stroke="#000000" d="M238.5341,-143.8314C240.4803,-136.0463 242.7987,-126.7729 244.9582,-118.1347"/>
<polygon fill="#000000" stroke="#000000" points="248.3587,-118.9636 247.3886,-108.4133 241.5677,-117.2658 248.3587,-118.9636"/>
</g>
<!-- SERVER_FINISHED -->
<g id="node16" class="node">
<title>SERVER_FINISHED</title>
<ellipse fill="none" stroke="#000000" cx="353.9919" cy="-18" rx="106.6812" ry="18"/>
<text text-anchor="middle" x="353.9919" y="-14.3" font-family="Times,serif" font-size="14.00" fill="#000000">SERVER_FINISHED</text>
</g>
<!-- SERVER_CHANGE_CIPHER_SPEC&#45;&gt;SERVER_FINISHED -->
<g id="edge26" class="edge">
<title>SERVER_CHANGE_CIPHER_SPEC&#45;&gt;SERVER_FINISHED</title>
<path fill="none" stroke="#000000" d="M277.4677,-72.0171C290.4659,-62.8419 306.4444,-51.563 320.4327,-41.6888"/>
<polygon fill="#000000" stroke="#000000" points="322.6895,-44.38 328.8408,-35.7537 318.6527,-38.6612 322.6895,-44.38"/>
</g>
<!-- SERVER_CERT_STATUS&#45;&gt;SERVER_KEY -->
<g id="edge11" class="edge">
<title>SERVER_CERT_STATUS&#45;&gt;SERVER_KEY</title>
<path fill="none" stroke="#000000" d="M294.5903,-791.8314C299.4019,-783.5829 305.1882,-773.6635 310.4757,-764.5992"/>
<polygon fill="#000000" stroke="#000000" points="313.5269,-766.3148 315.5424,-755.9134 307.4804,-762.7876 313.5269,-766.3148"/>
</g>
<!-- SERVER_CERT_STATUS&#45;&gt;SERVER_CERT_REQ -->
<g id="edge12" class="edge">
<title>SERVER_CERT_STATUS&#45;&gt;SERVER_CERT_REQ</title>
<path fill="none" stroke="#000000" d="M353.5134,-794.8394C374.8163,-786.7833 396.2373,-774.5403 409.9919,-756 423.0324,-738.4223 424.8469,-713.3459 423.7887,-694.1254"/>
<polygon fill="#000000" stroke="#000000" points="427.2746,-693.8102 422.9583,-684.1345 420.2987,-694.3901 427.2746,-693.8102"/>
</g>
<!-- SERVER_CERT_STATUS&#45;&gt;SERVER_HELLO_DONE -->
<g id="edge13" class="edge">
<title>SERVER_CERT_STATUS&#45;&gt;SERVER_HELLO_DONE</title>
<path fill="none" stroke="#000000" d="M264.9419,-791.8859C256.1349,-782.1885 246.6173,-769.4808 241.9919,-756 226.3815,-710.5029 241.0799,-654.25 252.7999,-621.4198"/>
<polygon fill="#000000" stroke="#000000" points="256.0901,-622.6136 256.3047,-612.0209 249.5313,-620.1678 256.0901,-622.6136"/>
</g>
<!-- SERVER_KEY&#45;&gt;SERVER_CERT_REQ -->
<g id="edge14" class="edge">
<title>SERVER_KEY&#45;&gt;SERVER_CERT_REQ</title>
<path fill="none" stroke="#000000" d="M348.7467,-720.5708C360.6919,-711.4213 375.5144,-700.0679 388.541,-690.0901"/>
<polygon fill="#000000" stroke="#000000" points="390.9831,-692.6283 396.7937,-683.7689 386.7266,-687.0711 390.9831,-692.6283"/>
</g>
<!-- SERVER_KEY&#45;&gt;SERVER_HELLO_DONE -->
<g id="edge15" class="edge">
<title>SERVER_KEY&#45;&gt;SERVER_HELLO_DONE</title>
<path fill="none" stroke="#000000" d="M317.9076,-720.037C313.2128,-709.5494 307.2128,-696.0494 301.9919,-684 292.8887,-662.9905 282.8191,-639.1112 275.3338,-621.2314"/>
<polygon fill="#000000" stroke="#000000" points="278.5494,-619.8487 271.4638,-611.9718 272.0908,-622.5481 278.5494,-619.8487"/>
</g>
<!-- SERVER_CERT_REQ&#45;&gt;SERVER_HELLO_DONE -->
<g id="edge16" class="edge">
<title>SERVER_CERT_REQ&#45;&gt;SERVER_HELLO_DONE</title>
<path fill="none" stroke="#000000" d="M383.0221,-648.937C361.4033,-638.9591 333.9059,-626.268 310.7876,-615.598"/>
<polygon fill="#000000" stroke="#000000" points="312.0546,-612.328 301.5082,-611.3152 309.1211,-618.6837 312.0546,-612.328"/>
</g>
<!-- CLIENT_CERT -->
<g id="node11" class="node">
<title>CLIENT_CERT</title>
<ellipse fill="none" stroke="#000000" cx="293.9919" cy="-522" rx="81.7856" ry="18"/>
<text text-anchor="middle" x="293.9919" y="-518.3" font-family="Times,serif" font-size="14.00" fill="#000000">CLIENT_CERT</text>
</g>
<!-- SERVER_HELLO_DONE&#45;&gt;CLIENT_CERT -->
<g id="edge17" class="edge">
<title>SERVER_HELLO_DONE&#45;&gt;CLIENT_CERT</title>
<path fill="none" stroke="#000000" d="M271.5622,-575.8314C274.8412,-567.9617 278.7539,-558.5712 282.3864,-549.8533"/>
<polygon fill="#000000" stroke="#000000" points="285.7043,-550.9902 286.3197,-540.4133 279.2427,-548.2979 285.7043,-550.9902"/>
</g>
<!-- CLIENT_KEY -->
<g id="node12" class="node">
<title>CLIENT_KEY</title>
<ellipse fill="none" stroke="#000000" cx="273.9919" cy="-450" rx="74.9875" ry="18"/>
<text text-anchor="middle" x="273.9919" y="-446.3" font-family="Times,serif" font-size="14.00" fill="#000000">CLIENT_KEY</text>
</g>
<!-- SERVER_HELLO_DONE&#45;&gt;CLIENT_KEY -->
<g id="edge18" class="edge">
<title>SERVER_HELLO_DONE&#45;&gt;CLIENT_KEY</title>
<path fill="none" stroke="#000000" d="M234.9392,-576.3983C222.6581,-567.2344 209.6702,-554.831 202.9919,-540 196.4226,-525.4108 195.8847,-518.3348 202.9919,-504 209.4132,-491.0488 220.5912,-480.3629 232.2035,-472.0122"/>
<polygon fill="#000000" stroke="#000000" points="234.3087,-474.8149 240.674,-466.3453 230.4163,-468.9969 234.3087,-474.8149"/>
</g>
<!-- CLIENT_CERT&#45;&gt;CLIENT_KEY -->
<g id="edge19" class="edge">
<title>CLIENT_CERT&#45;&gt;CLIENT_KEY</title>
<path fill="none" stroke="#000000" d="M288.9451,-503.8314C286.7826,-496.0463 284.2066,-486.7729 281.8071,-478.1347"/>
<polygon fill="#000000" stroke="#000000" points="285.1555,-477.1117 279.1067,-468.4133 278.4109,-478.9852 285.1555,-477.1117"/>
</g>
<!-- CLIENT_CERT_VERIFY -->
<g id="node13" class="node">
<title>CLIENT_CERT_VERIFY</title>
<ellipse fill="none" stroke="#000000" cx="398.9919" cy="-378" rx="124.2781" ry="18"/>
<text text-anchor="middle" x="398.9919" y="-374.3" font-family="Times,serif" font-size="14.00" fill="#000000">CLIENT_CERT_VERIFY</text>
</g>
<!-- CLIENT_KEY&#45;&gt;CLIENT_CERT_VERIFY -->
<g id="edge20" class="edge">
<title>CLIENT_KEY&#45;&gt;CLIENT_CERT_VERIFY</title>
<path fill="none" stroke="#000000" d="M302.9836,-433.3008C319.8421,-423.5903 341.3184,-411.2199 359.6824,-400.6423"/>
<polygon fill="#000000" stroke="#000000" points="361.4951,-403.6373 368.4135,-395.6132 358.0012,-397.5716 361.4951,-403.6373"/>
</g>
<!-- CLIENT_CHANGE_CIPHER_SPEC -->
<g id="node14" class="node">
<title>CLIENT_CHANGE_CIPHER_SPEC</title>
<ellipse fill="none" stroke="#000000" cx="359.9919" cy="-306" rx="175.4689" ry="18"/>
<text text-anchor="middle" x="359.9919" y="-302.3" font-family="Times,serif" font-size="14.00" fill="#000000">CLIENT_CHANGE_CIPHER_SPEC</text>
</g>
<!-- CLIENT_KEY&#45;&gt;CLIENT_CHANGE_CIPHER_SPEC -->
<g id="edge21" class="edge">
<title>CLIENT_KEY&#45;&gt;CLIENT_CHANGE_CIPHER_SPEC</title>
<path fill="none" stroke="#000000" d="M266.5205,-431.7586C259.929,-412.5656 253.1834,-382.1297 265.9919,-360 273.8031,-346.5044 286.4041,-336.0881 299.8763,-328.1715"/>
<polygon fill="#000000" stroke="#000000" points="301.6929,-331.168 308.8137,-323.3229 298.3549,-325.0151 301.6929,-331.168"/>
</g>
<!-- CLIENT_CERT_VERIFY&#45;&gt;CLIENT_CHANGE_CIPHER_SPEC -->
<g id="edge22" class="edge">
<title>CLIENT_CERT_VERIFY&#45;&gt;CLIENT_CHANGE_CIPHER_SPEC</title>
<path fill="none" stroke="#000000" d="M389.1506,-359.8314C384.7962,-351.7925 379.5821,-342.1666 374.775,-333.2918"/>
<polygon fill="#000000" stroke="#000000" points="377.8062,-331.5392 369.9658,-324.4133 371.6511,-334.8732 377.8062,-331.5392"/>
</g>
<!-- CLIENT_FINISHED -->
<g id="node15" class="node">
<title>CLIENT_FINISHED</title>
<ellipse fill="none" stroke="#000000" cx="339.9919" cy="-234" rx="105.8812" ry="18"/>
<text text-anchor="middle" x="339.9919" y="-230.3" font-family="Times,serif" font-size="14.00" fill="#000000">CLIENT_FINISHED</text>
</g>
<!-- CLIENT_CHANGE_CIPHER_SPEC&#45;&gt;CLIENT_FINISHED -->
<g id="edge23" class="edge">
<title>CLIENT_CHANGE_CIPHER_SPEC&#45;&gt;CLIENT_FINISHED</title>
<path fill="none" stroke="#000000" d="M354.9451,-287.8314C352.7826,-280.0463 350.2066,-270.7729 347.8071,-262.1347"/>
<polygon fill="#000000" stroke="#000000" points="351.1555,-261.1117 345.1067,-252.4133 344.4109,-262.9852 351.1555,-261.1117"/>
</g>
<!-- CLIENT_FINISHED&#45;&gt;SERVER_NEW_SESSION_TICKET -->
<g id="edge24" class="edge">
<title>CLIENT_FINISHED&#45;&gt;SERVER_NEW_SESSION_TICKET</title>
<path fill="none" stroke="#000000" d="M314.0614,-216.3868C300.4327,-207.1296 283.5397,-195.6551 268.7882,-185.6352"/>
<polygon fill="#000000" stroke="#000000" points="270.6299,-182.6551 260.3911,-179.9315 266.6967,-188.4456 270.6299,-182.6551"/>
</g>
<!-- CLIENT_FINISHED&#45;&gt;SERVER_CHANGE_CIPHER_SPEC -->
<g id="edge25" class="edge">
<title>CLIENT_FINISHED&#45;&gt;SERVER_CHANGE_CIPHER_SPEC</title>
<path fill="none" stroke="#000000" d="M378.068,-217.128C393.0422,-208.3668 408.6292,-196.0791 416.9919,-180 424.3747,-165.8051 426.3827,-156.9543 416.9919,-144 407.0093,-130.2293 373.7599,-118.1052 339.6986,-108.8524"/>
<polygon fill="#000000" stroke="#000000" points="340.1711,-105.3576 329.6096,-106.1974 338.3896,-112.1271 340.1711,-105.3576"/>
</g>
<!-- SERVER_FINISHED&#45;&gt;CLIENT_CHANGE_CIPHER_SPEC -->
<g id="edge27" class="edge">
<title>SERVER_FINISHED&#45;&gt;CLIENT_CHANGE_CIPHER_SPEC</title>
<path fill="none" stroke="#000000" d="M394.9323,-34.8768C410.9563,-43.5827 427.8864,-55.8271 437.9919,-72 472.1412,-126.6527 451.2076,-151.6668 454.9919,-216 455.9315,-231.9724 463.0385,-238.1706 454.9919,-252 447.0872,-265.5857 434.3485,-276.0338 420.7328,-283.9521"/>
<polygon fill="#000000" stroke="#000000" points="418.8579,-280.9861 411.7006,-288.7979 422.1672,-287.1544 418.8579,-280.9861"/>
</g>
<!-- APPLICATION_DATA -->
<g id="node17" class="node">
<title>APPLICATION_DATA</title>
<polygon fill="none" stroke="#000000" points="351.9919,-1252 179.9919,-1252 179.9919,-1080 351.9919,-1080 351.9919,-1252"/>
<text text-anchor="middle" x="265.9919" y="-1162.3" font-family="Times,serif" font-size="14.00" fill="#000000">APPLICATION_DATA</text>
</g>
</g>
</svg>
