<?xml version="1.0" encoding="UTF-8" standalone="no"?>
<!DOCTYPE svg PUBLIC "-//W3C//DTD SVG 1.1//EN"
 "http://www.w3.org/Graphics/SVG/1.1/DTD/svg11.dtd">
<!-- Generated by graphviz version 2.43.0 (0)
 -->
<!-- Title: G Pages: 1 -->
<svg width="379pt" height="1125pt"
 viewBox="0.00 0.00 378.64 1125.44" xmlns="http://www.w3.org/2000/svg" xmlns:xlink="http://www.w3.org/1999/xlink">
<g id="graph0" class="graph" transform="scale(1 1) rotate(0) translate(4 1121.44)">
<title>G</title>
<polygon fill="white" stroke="transparent" points="-4,4 -4,-1121.44 374.64,-1121.44 374.64,4 -4,4"/>
<text text-anchor="start" x="54.55" y="-1094.24" font-family="Times,serif" font-size="24.00">s2n TLS 1.3 State Machine</text>
<!-- INITIAL -->
<g id="node1" class="node">
<title>INITIAL</title>
<polygon fill="none" stroke="black" points="173.4,-1085.44 113.14,-1067.44 173.4,-1049.44 233.66,-1067.44 173.4,-1085.44"/>
<text text-anchor="middle" x="173.4" y="-1063.24" font-family="Times,serif" font-size="14.00">INITIAL</text>
</g>
<!-- CLIENT_HELLO -->
<g id="node2" class="node">
<title>CLIENT_HELLO</title>
<ellipse fill="none" stroke="black" cx="173.4" cy="-995.44" rx="74.89" ry="18"/>
<text text-anchor="middle" x="173.4" y="-991.24" font-family="Times,serif" font-size="14.00">CLIENT_HELLO</text>
</g>
<!-- INITIAL&#45;&gt;CLIENT_HELLO -->
<g id="edge1" class="edge">
<title>INITIAL&#45;&gt;CLIENT_HELLO</title>
<path fill="none" stroke="black" d="M173.4,-1049.14C173.4,-1041.43 173.4,-1032.16 173.4,-1023.56"/>
<polygon fill="black" stroke="black" points="176.9,-1023.55 173.4,-1013.55 169.9,-1023.55 176.9,-1023.55"/>
</g>
<!-- SERVER_HELLO -->
<g id="node3" class="node">
<title>SERVER_HELLO</title>
<ellipse fill="none" stroke="black" cx="173.4" cy="-923.44" rx="76.92" ry="18"/>
<text text-anchor="middle" x="173.4" y="-919.24" font-family="Times,serif" font-size="14.00">SERVER_HELLO</text>
</g>
<!-- CLIENT_HELLO&#45;&gt;SERVER_HELLO -->
<g id="edge2" class="edge">
<title>CLIENT_HELLO&#45;&gt;SERVER_HELLO</title>
<path fill="none" stroke="black" d="M173.4,-977.14C173.4,-969.43 173.4,-960.16 173.4,-951.56"/>
<polygon fill="black" stroke="black" points="176.9,-951.55 173.4,-941.55 169.9,-951.55 176.9,-951.55"/>
</g>
<!-- SERVER_CHANGE_CIPHER_SPEC -->
<g id="node4" class="node">
<title>SERVER_CHANGE_CIPHER_SPEC</title>
<ellipse fill="none" stroke="black" cx="173.4" cy="-851.44" rx="146.01" ry="18"/>
<text text-anchor="middle" x="173.4" y="-847.24" font-family="Times,serif" font-size="14.00">SERVER_CHANGE_CIPHER_SPEC</text>
</g>
<!-- SERVER_HELLO&#45;&gt;SERVER_CHANGE_CIPHER_SPEC -->
<g id="edge3" class="edge">
<title>SERVER_HELLO&#45;&gt;SERVER_CHANGE_CIPHER_SPEC</title>
<path fill="none" stroke="black" d="M173.4,-905.14C173.4,-897.43 173.4,-888.16 173.4,-879.56"/>
<polygon fill="black" stroke="black" points="176.9,-879.55 173.4,-869.55 169.9,-879.55 176.9,-879.55"/>
</g>
<!-- ENCRYPTED_EXTENSIONS -->
<g id="node13" class="node">
<title>ENCRYPTED_EXTENSIONS</title>
<ellipse fill="none" stroke="black" cx="173.4" cy="-779.44" rx="120.82" ry="18"/>
<text text-anchor="middle" x="173.4" y="-775.24" font-family="Times,serif" font-size="14.00">ENCRYPTED_EXTENSIONS</text>
</g>
<!-- SERVER_CHANGE_CIPHER_SPEC&#45;&gt;ENCRYPTED_EXTENSIONS -->
<g id="edge12" class="edge">
<title>SERVER_CHANGE_CIPHER_SPEC&#45;&gt;ENCRYPTED_EXTENSIONS</title>
<path fill="none" stroke="black" d="M173.4,-833.14C173.4,-825.43 173.4,-816.16 173.4,-807.56"/>
<polygon fill="black" stroke="black" points="176.9,-807.55 173.4,-797.55 169.9,-807.55 176.9,-807.55"/>
</g>
<!-- SERVER_CERT -->
<g id="node5" class="node">
<title>SERVER_CERT</title>
<ellipse fill="none" stroke="black" cx="159.4" cy="-635.44" rx="69.61" ry="18"/>
<text text-anchor="middle" x="159.4" y="-631.24" font-family="Times,serif" font-size="14.00">SERVER_CERT</text>
</g>
<!-- SERVER_CERT_VERIFY -->
<g id="node6" class="node">
<title>SERVER_CERT_VERIFY</title>
<ellipse fill="none" stroke="black" cx="159.4" cy="-563.44" rx="106.33" ry="18"/>
<text text-anchor="middle" x="159.4" y="-559.24" font-family="Times,serif" font-size="14.00">SERVER_CERT_VERIFY</text>
</g>
<!-- SERVER_CERT&#45;&gt;SERVER_CERT_VERIFY -->
<g id="edge4" class="edge">
<title>SERVER_CERT&#45;&gt;SERVER_CERT_VERIFY</title>
<path fill="none" stroke="black" d="M159.4,-617.14C159.4,-609.43 159.4,-600.16 159.4,-591.56"/>
<polygon fill="black" stroke="black" points="162.9,-591.55 159.4,-581.55 155.9,-591.55 162.9,-591.55"/>
</g>
<!-- SERVER_FINISHED -->
<g id="node14" class="node">
<title>SERVER_FINISHED</title>
<ellipse fill="none" stroke="black" cx="226.4" cy="-491.44" rx="88.04" ry="18"/>
<text text-anchor="middle" x="226.4" y="-487.24" font-family="Times,serif" font-size="14.00">SERVER_FINISHED</text>
</g>
<!-- SERVER_CERT_VERIFY&#45;&gt;SERVER_FINISHED -->
<g id="edge17" class="edge">
<title>SERVER_CERT_VERIFY&#45;&gt;SERVER_FINISHED</title>
<path fill="none" stroke="black" d="M175.62,-545.5C183.93,-536.82 194.19,-526.09 203.32,-516.56"/>
<polygon fill="black" stroke="black" points="205.94,-518.88 210.33,-509.23 200.88,-514.04 205.94,-518.88"/>
</g>
<!-- SERVER_CERT_REQ -->
<g id="node7" class="node">
<title>SERVER_CERT_REQ</title>
<ellipse fill="none" stroke="black" cx="173.4" cy="-707.44" rx="91.83" ry="18"/>
<text text-anchor="middle" x="173.4" y="-703.24" font-family="Times,serif" font-size="14.00">SERVER_CERT_REQ</text>
</g>
<!-- SERVER_CERT_REQ&#45;&gt;SERVER_CERT -->
<g id="edge5" class="edge">
<title>SERVER_CERT_REQ&#45;&gt;SERVER_CERT</title>
<path fill="none" stroke="black" d="M169.94,-689.14C168.39,-681.43 166.54,-672.16 164.82,-663.56"/>
<polygon fill="black" stroke="black" points="168.21,-662.67 162.82,-653.55 161.35,-664.04 168.21,-662.67"/>
</g>
<!-- CLIENT_CERT -->
<g id="node8" class="node">
<title>CLIENT_CERT</title>
<ellipse fill="none" stroke="black" cx="178.4" cy="-347.44" rx="68.08" ry="18"/>
<text text-anchor="middle" x="178.4" y="-343.24" font-family="Times,serif" font-size="14.00">CLIENT_CERT</text>
</g>
<!-- CLIENT_CERT_VERIFY -->
<g id="node9" class="node">
<title>CLIENT_CERT_VERIFY</title>
<ellipse fill="none" stroke="black" cx="104.4" cy="-275.44" rx="104.29" ry="18"/>
<text text-anchor="middle" x="104.4" y="-271.24" font-family="Times,serif" font-size="14.00">CLIENT_CERT_VERIFY</text>
</g>
<!-- CLIENT_CERT&#45;&gt;CLIENT_CERT_VERIFY -->
<g id="edge6" class="edge">
<title>CLIENT_CERT&#45;&gt;CLIENT_CERT_VERIFY</title>
<path fill="none" stroke="black" d="M160.86,-329.86C151.6,-321.09 140.06,-310.18 129.83,-300.5"/>
<polygon fill="black" stroke="black" points="131.99,-297.73 122.32,-293.4 127.18,-302.82 131.99,-297.73"/>
</g>
<!-- CLIENT_FINISHED -->
<g id="node10" class="node">
<title>CLIENT_FINISHED</title>
<ellipse fill="none" stroke="black" cx="236.4" cy="-203.44" rx="86.01" ry="18"/>
<text text-anchor="middle" x="236.4" y="-199.24" font-family="Times,serif" font-size="14.00">CLIENT_FINISHED</text>
</g>
<!-- CLIENT_CERT&#45;&gt;CLIENT_FINISHED -->
<g id="edge7" class="edge">
<title>CLIENT_CERT&#45;&gt;CLIENT_FINISHED</title>
<path fill="none" stroke="black" d="M193.79,-329.48C201.96,-319.62 211.5,-306.57 217.4,-293.44 226.23,-273.78 231.05,-249.79 233.62,-231.68"/>
<polygon fill="black" stroke="black" points="237.12,-231.87 234.91,-221.51 230.18,-230.99 237.12,-231.87"/>
</g>
<!-- CLIENT_CERT_VERIFY&#45;&gt;CLIENT_FINISHED -->
<g id="edge8" class="edge">
<title>CLIENT_CERT_VERIFY&#45;&gt;CLIENT_FINISHED</title>
<path fill="none" stroke="black" d="M135.01,-258.21C153.64,-248.33 177.6,-235.62 197.55,-225.04"/>
<polygon fill="black" stroke="black" points="199.21,-228.13 206.4,-220.35 195.93,-221.94 199.21,-228.13"/>
</g>
<!-- APPLICATION_DATA -->
<g id="node12" class="node">
<title>APPLICATION_DATA</title>
<polygon fill="none" stroke="black" points="311.34,-149.67 161.45,-149.67 161.45,0.22 311.34,0.22 311.34,-149.67"/>
<text text-anchor="middle" x="236.4" y="-70.52" font-family="Times,serif" font-size="14.00">APPLICATION_DATA</text>
</g>
<!-- CLIENT_FINISHED&#45;&gt;APPLICATION_DATA -->
<g id="edge11" class="edge">
<title>CLIENT_FINISHED&#45;&gt;APPLICATION_DATA</title>
<path fill="none" stroke="black" d="M236.4,-185.35C236.4,-178.23 236.4,-169.4 236.4,-159.86"/>
<polygon fill="black" stroke="black" points="239.9,-159.7 236.4,-149.7 232.9,-159.7 239.9,-159.7"/>
</g>
<!-- CLIENT_CHANGE_CIPHER_SPEC -->
<g id="node11" class="node">
<title>CLIENT_CHANGE_CIPHER_SPEC</title>
<ellipse fill="none" stroke="black" cx="226.4" cy="-419.44" rx="144.48" ry="18"/>
<text text-anchor="middle" x="226.4" y="-415.24" font-family="Times,serif" font-size="14.00">CLIENT_CHANGE_CIPHER_SPEC</text>
</g>
<!-- CLIENT_CHANGE_CIPHER_SPEC&#45;&gt;CLIENT_CERT -->
<g id="edge9" class="edge">
<title>CLIENT_CHANGE_CIPHER_SPEC&#45;&gt;CLIENT_CERT</title>
<path fill="none" stroke="black" d="M214.78,-401.5C209.06,-393.16 202.05,-382.94 195.71,-373.7"/>
<polygon fill="black" stroke="black" points="198.45,-371.5 189.91,-365.23 192.68,-375.46 198.45,-371.5"/>
</g>
<!-- CLIENT_CHANGE_CIPHER_SPEC&#45;&gt;CLIENT_FINISHED -->
<g id="edge10" class="edge">
<title>CLIENT_CHANGE_CIPHER_SPEC&#45;&gt;CLIENT_FINISHED</title>
<path fill="none" stroke="black" d="M238.7,-401.23C245.05,-391.29 252.12,-378.25 255.4,-365.44 267.22,-319.19 255.03,-263.54 245.46,-231.26"/>
<polygon fill="black" stroke="black" points="248.79,-230.15 242.48,-221.64 242.1,-232.23 248.79,-230.15"/>
</g>
<!-- ENCRYPTED_EXTENSIONS&#45;&gt;SERVER_CERT -->
<g id="edge14" class="edge">
<title>ENCRYPTED_EXTENSIONS&#45;&gt;SERVER_CERT</title>
<path fill="none" stroke="black" d="M120.13,-763.22C101.72,-755.12 83.05,-743.07 72.4,-725.44 64.12,-711.75 64.56,-703.39 72.4,-689.44 80.79,-674.5 95.29,-663.28 110.08,-655.1"/>
<polygon fill="black" stroke="black" points="111.96,-658.07 119.27,-650.4 108.77,-651.84 111.96,-658.07"/>
</g>
<!-- ENCRYPTED_EXTENSIONS&#45;&gt;SERVER_CERT_REQ -->
<g id="edge15" class="edge">
<title>ENCRYPTED_EXTENSIONS&#45;&gt;SERVER_CERT_REQ</title>
<path fill="none" stroke="black" d="M173.4,-761.14C173.4,-753.43 173.4,-744.16 173.4,-735.56"/>
<polygon fill="black" stroke="black" points="176.9,-735.55 173.4,-725.55 169.9,-735.55 176.9,-735.55"/>
</g>
<!-- ENCRYPTED_EXTENSIONS&#45;&gt;SERVER_FINISHED -->
<g id="edge16" class="edge">
<title>ENCRYPTED_EXTENSIONS&#45;&gt;SERVER_FINISHED</title>
<path fill="none" stroke="black" d="M226.66,-763.22C245.08,-755.12 263.74,-743.07 274.4,-725.44 315.79,-656.98 303.17,-620.09 274.4,-545.44 270.19,-534.54 262.58,-524.48 254.65,-516.13"/>
<polygon fill="black" stroke="black" points="256.94,-513.47 247.35,-508.96 252.03,-518.47 256.94,-513.47"/>
</g>
<!-- SERVER_FINISHED&#45;&gt;CLIENT_CHANGE_CIPHER_SPEC -->
<g id="edge13" class="edge">
<title>SERVER_FINISHED&#45;&gt;CLIENT_CHANGE_CIPHER_SPEC</title>
<path fill="none" stroke="black" d="M226.4,-473.14C226.4,-465.43 226.4,-456.16 226.4,-447.56"/>
<polygon fill="black" stroke="black" points="229.9,-447.55 226.4,-437.55 222.9,-447.55 229.9,-447.55"/>
</g>
</g>
</svg>
