<svg width="400" height="250" viewBox="0 0 400 250" xmlns="http://www.w3.org/2000/svg">
<line opacity="0.1" stroke="#000000" stroke-width="1" x1="0" y1="249" x2="0" y2="0"/>
<line opacity="0.1" stroke="#000000" stroke-width="1" x1="57" y1="249" x2="57" y2="0"/>
<line opacity="0.1" stroke="#000000" stroke-width="1" x1="114" y1="249" x2="114" y2="0"/>
<line opacity="0.1" stroke="#000000" stroke-width="1" x1="171" y1="249" x2="171" y2="0"/>
<line opacity="0.1" stroke="#000000" stroke-width="1" x1="228" y1="249" x2="228" y2="0"/>
<line opacity="0.1" stroke="#000000" stroke-width="1" x1="285" y1="249" x2="285" y2="0"/>
<line opacity="0.1" stroke="#000000" stroke-width="1" x1="342" y1="249" x2="342" y2="0"/>
<line opacity="0.1" stroke="#000000" stroke-width="1" x1="399" y1="249" x2="399" y2="0"/>
<line opacity="0.1" stroke="#000000" stroke-width="1" x1="0" y1="249" x2="399" y2="249"/>
<line opacity="0.1" stroke="#000000" stroke-width="1" x1="0" y1="246" x2="399" y2="246"/>
<line opacity="0.1" stroke="#000000" stroke-width="1" x1="0" y1="242" x2="399" y2="242"/>
<line opacity="0.1" stroke="#000000" stroke-width="1" x1="0" y1="239" x2="399" y2="239"/>
<line opacity="0.1" stroke="#000000" stroke-width="1" x1="0" y1="235" x2="399" y2="235"/>
<line opacity="0.1" stroke="#000000" stroke-width="1" x1="0" y1="232" x2="399" y2="232"/>
<line opacity="0.1" stroke="#000000" stroke-width="1" x1="0" y1="228" x2="399" y2="228"/>
<line opacity="0.1" stroke="#000000" stroke-width="1" x1="0" y1="225" x2="399" y2="225"/>
<line opacity="0.1" stroke="#000000" stroke-width="1" x1="0" y1="221" x2="399" y2="221"/>
<line opacity="0.1" stroke="#000000" stroke-width="1" x1="0" y1="217" x2="399" y2="217"/>
<line opacity="0.1" stroke="#000000" stroke-width="1" x1="0" y1="214" x2="399" y2="214"/>
<line opacity="0.1" stroke="#000000" stroke-width="1" x1="0" y1="210" x2="399" y2="210"/>
<line opacity="0.1" stroke="#000000" stroke-width="1" x1="0" y1="207" x2="399" y2="207"/>
<line opacity="0.1" stroke="#000000" stroke-width="1" x1="0" y1="203" x2="399" y2="203"/>
<line opacity="0.1" stroke="#000000" stroke-width="1" x1="0" y1="200" x2="399" y2="200"/>
<line opacity="0.1" stroke="#000000" stroke-width="1" x1="0" y1="196" x2="399" y2="196"/>
<line opacity="0.1" stroke="#000000" stroke-width="1" x1="0" y1="193" x2="399" y2="193"/>
<line opacity="0.1" stroke="#000000" stroke-width="1" x1="0" y1="189" x2="399" y2="189"/>
<line opacity="0.1" stroke="#000000" stroke-width="1" x1="0" y1="185" x2="399" y2="185"/>
<line opacity="0.1" stroke="#000000" stroke-width="1" x1="0" y1="182" x2="399" y2="182"/>
<line opacity="0.1" stroke="#000000" stroke-width="1" x1="0" y1="178" x2="399" y2="178"/>
<line opacity="0.1" stroke="#000000" stroke-width="1" x1="0" y1="175" x2="399" y2="175"/>
<line opacity="0.1" stroke="#000000" stroke-width="1" x1="0" y1="171" x2="399" y2="171"/>
<line opacity="0.1" stroke="#000000" stroke-width="1" x1="0" y1="168" x2="399" y2="168"/>
<line opacity="0.1" stroke="#000000" stroke-width="1" x1="0" y1="164" x2="399" y2="164"/>
<line opacity="0.1" stroke="#000000" stroke-width="1" x1="0" y1="161" x2="399" y2="161"/>
<line opacity="0.1" stroke="#000000" stroke-width="1" x1="0" y1="157" x2="399" y2="157"/>
<line opacity="0.1" stroke="#000000" stroke-width="1" x1="0" y1="153" x2="399" y2="153"/>
<line opacity="0.1" stroke="#000000" stroke-width="1" x1="0" y1="150" x2="399" y2="150"/>
<line opacity="0.1" stroke="#000000" stroke-width="1" x1="0" y1="146" x2="399" y2="146"/>
<line opacity="0.1" stroke="#000000" stroke-width="1" x1="0" y1="143" x2="399" y2="143"/>
<line opacity="0.1" stroke="#000000" stroke-width="1" x1="0" y1="139" x2="399" y2="139"/>
<line opacity="0.1" stroke="#000000" stroke-width="1" x1="0" y1="136" x2="399" y2="136"/>
<line opacity="0.1" stroke="#000000" stroke-width="1" x1="0" y1="132" x2="399" y2="132"/>
<line opacity="0.1" stroke="#000000" stroke-width="1" x1="0" y1="129" x2="399" y2="129"/>
<line opacity="0.1" stroke="#000000" stroke-width="1" x1="0" y1="125" x2="399" y2="125"/>
<line opacity="0.1" stroke="#000000" stroke-width="1" x1="0" y1="121" x2="399" y2="121"/>
<line opacity="0.1" stroke="#000000" stroke-width="1" x1="0" y1="118" x2="399" y2="118"/>
<line opacity="0.1" stroke="#000000" stroke-width="1" x1="0" y1="114" x2="399" y2="114"/>
<line opacity="0.1" stroke="#000000" stroke-width="1" x1="0" y1="111" x2="399" y2="111"/>
<line opacity="0.1" stroke="#000000" stroke-width="1" x1="0" y1="107" x2="399" y2="107"/>
<line opacity="0.1" stroke="#000000" stroke-width="1" x1="0" y1="104" x2="399" y2="104"/>
<line opacity="0.1" stroke="#000000" stroke-width="1" x1="0" y1="100" x2="399" y2="100"/>
<line opacity="0.1" stroke="#000000" stroke-width="1" x1="0" y1="97" x2="399" y2="97"/>
<line opacity="0.1" stroke="#000000" stroke-width="1" x1="0" y1="93" x2="399" y2="93"/>
<line opacity="0.1" stroke="#000000" stroke-width="1" x1="0" y1="89" x2="399" y2="89"/>
<line opacity="0.1" stroke="#000000" stroke-width="1" x1="0" y1="86" x2="399" y2="86"/>
<line opacity="0.1" stroke="#000000" stroke-width="1" x1="0" y1="82" x2="399" y2="82"/>
<line opacity="0.1" stroke="#000000" stroke-width="1" x1="0" y1="79" x2="399" y2="79"/>
<line opacity="0.1" stroke="#000000" stroke-width="1" x1="0" y1="75" x2="399" y2="75"/>
<line opacity="0.1" stroke="#000000" stroke-width="1" x1="0" y1="72" x2="399" y2="72"/>
<line opacity="0.1" stroke="#000000" stroke-width="1" x1="0" y1="68" x2="399" y2="68"/>
<line opacity="0.1" stroke="#000000" stroke-width="1" x1="0" y1="65" x2="399" y2="65"/>
<line opacity="0.1" stroke="#000000" stroke-width="1" x1="0" y1="61" x2="399" y2="61"/>
<line opacity="0.1" stroke="#000000" stroke-width="1" x1="0" y1="57" x2="399" y2="57"/>
<line opacity="0.1" stroke="#000000" stroke-width="1" x1="0" y1="54" x2="399" y2="54"/>
<line opacity="0.1" stroke="#000000" stroke-width="1" x1="0" y1="50" x2="399" y2="50"/>
<line opacity="0.1" stroke="#000000" stroke-width="1" x1="0" y1="47" x2="399" y2="47"/>
<line opacity="0.1" stroke="#000000" stroke-width="1" x1="0" y1="43" x2="399" y2="43"/>
<line opacity="0.1" stroke="#000000" stroke-width="1" x1="0" y1="40" x2="399" y2="40"/>
<line opacity="0.1" stroke="#000000" stroke-width="1" x1="0" y1="36" x2="399" y2="36"/>
<line opacity="0.1" stroke="#000000" stroke-width="1" x1="0" y1="33" x2="399" y2="33"/>
<line opacity="0.1" stroke="#000000" stroke-width="1" x1="0" y1="29" x2="399" y2="29"/>
<line opacity="0.1" stroke="#000000" stroke-width="1" x1="0" y1="25" x2="399" y2="25"/>
<line opacity="0.1" stroke="#000000" stroke-width="1" x1="0" y1="22" x2="399" y2="22"/>
<line opacity="0.1" stroke="#000000" stroke-width="1" x1="0" y1="18" x2="399" y2="18"/>
<line opacity="0.1" stroke="#000000" stroke-width="1" x1="0" y1="15" x2="399" y2="15"/>
<line opacity="0.1" stroke="#000000" stroke-width="1" x1="0" y1="11" x2="399" y2="11"/>
<line opacity="0.1" stroke="#000000" stroke-width="1" x1="0" y1="8" x2="399" y2="8"/>
<line opacity="0.1" stroke="#000000" stroke-width="1" x1="0" y1="4" x2="399" y2="4"/>
<line opacity="0.1" stroke="#000000" stroke-width="1" x1="0" y1="0" x2="399" y2="0"/>
<line opacity="0.2" stroke="#000000" stroke-width="1" x1="0" y1="249" x2="0" y2="0"/>
<line opacity="0.2" stroke="#000000" stroke-width="1" x1="57" y1="249" x2="57" y2="0"/>
<line opacity="0.2" stroke="#000000" stroke-width="1" x1="114" y1="249" x2="114" y2="0"/>
<line opacity="0.2" stroke="#000000" stroke-width="1" x1="171" y1="249" x2="171" y2="0"/>
<line opacity="0.2" stroke="#000000" stroke-width="1" x1="228" y1="249" x2="228" y2="0"/>
<line opacity="0.2" stroke="#000000" stroke-width="1" x1="285" y1="249" x2="285" y2="0"/>
<line opacity="0.2" stroke="#000000" stroke-width="1" x1="342" y1="249" x2="342" y2="0"/>
<line opacity="0.2" stroke="#000000" stroke-width="1" x1="399" y1="249" x2="399" y2="0"/>
<line opacity="0.2" stroke="#000000" stroke-width="1" x1="0" y1="249" x2="399" y2="249"/>
<line opacity="0.2" stroke="#000000" stroke-width="1" x1="0" y1="214" x2="399" y2="214"/>
<line opacity="0.2" stroke="#000000" stroke-width="1" x1="0" y1="178" x2="399" y2="178"/>
<line opacity="0.2" stroke="#000000" stroke-width="1" x1="0" y1="143" x2="399" y2="143"/>
<line opacity="0.2" stroke="#000000" stroke-width="1" x1="0" y1="107" x2="399" y2="107"/>
<line opacity="0.2" stroke="#000000" stroke-width="1" x1="0" y1="72" x2="399" y2="72"/>
<line opacity="0.2" stroke="#000000" stroke-width="1" x1="0" y1="36" x2="399" y2="36"/>
<line opacity="0.2" stroke="#000000" stroke-width="1" x1="0" y1="0" x2="399" y2="0"/>
<line opacity="1" stroke="#FF0000" stroke-width="1" x1="337" y1="95" x2="347" y2="95"/>
<line opacity="1" stroke="#FF0000" stroke-width="1" x1="337" y1="95" x2="347" y2="95"/>
<line opacity="1" stroke="#FF0000" stroke-width="1" x1="342" y1="95" x2="342" y2="95"/>
<circle cx="342" cy="95" r="5" opacity="1" fill="none" stroke="#FF0000" stroke-width="1"/>
<line opacity="1" stroke="#FF0000" stroke-width="1" x1="280" y1="95" x2="290" y2="95"/>
<line opacity="1" stroke="#FF0000" stroke-width="1" x1="280" y1="95" x2="290" y2="95"/>
<line opacity="1" stroke="#FF0000" stroke-width="1" x1="285" y1="95" x2="285" y2="95"/>
<circle cx="285" cy="95" r="5" opacity="1" fill="none" stroke="#FF0000" stroke-width="1"/>
<line opacity="1" stroke="#FF0000" stroke-width="1" x1="223" y1="95" x2="233" y2="95"/>
<line opacity="1" stroke="#FF0000" stroke-width="1" x1="223" y1="95" x2="233" y2="95"/>
<line opacity="1" stroke="#FF0000" stroke-width="1" x1="228" y1="95" x2="228" y2="95"/>
<circle cx="228" cy="95" r="5" opacity="1" fill="none" stroke="#FF0000" stroke-width="1"/>
<line opacity="1" stroke="#FF0000" stroke-width="1" x1="166" y1="95" x2="176" y2="95"/>
<line opacity="1" stroke="#FF0000" stroke-width="1" x1="166" y1="95" x2="176" y2="95"/>
<line opacity="1" stroke="#FF0000" stroke-width="1" x1="171" y1="95" x2="171" y2="95"/>
<circle cx="171" cy="95" r="5" opacity="1" fill="none" stroke="#FF0000" stroke-width="1"/>
<line opacity="1" stroke="#FF0000" stroke-width="1" x1="109" y1="95" x2="119" y2="95"/>
<line opacity="1" stroke="#FF0000" stroke-width="1" x1="109" y1="95" x2="119" y2="95"/>
<line opacity="1" stroke="#FF0000" stroke-width="1" x1="114" y1="95" x2="114" y2="95"/>
<circle cx="114" cy="95" r="5" opacity="1" fill="none" stroke="#FF0000" stroke-width="1"/>
<line opacity="1" stroke="#FF0000" stroke-width="1" x1="52" y1="95" x2="62" y2="95"/>
<line opacity="1" stroke="#FF0000" stroke-width="1" x1="52" y1="95" x2="62" y2="95"/>
<line opacity="1" stroke="#FF0000" stroke-width="1" x1="57" y1="95" x2="57" y2="95"/>
<circle cx="57" cy="95" r="5" opacity="1" fill="none" stroke="#FF0000" stroke-width="1"/>
<line opacity="1" stroke="#FF0000" stroke-width="1" x1="337" y1="110" x2="347" y2="110"/>
<line opacity="1" stroke="#FF0000" stroke-width="1" x1="337" y1="109" x2="347" y2="109"/>
<line opacity="1" stroke="#FF0000" stroke-width="1" x1="342" y1="110" x2="342" y2="109"/>
<circle cx="342" cy="110" r="5" opacity="1" fill="none" stroke="#FF0000" stroke-width="1"/>
<line opacity="1" stroke="#FF0000" stroke-width="1" x1="280" y1="110" x2="290" y2="110"/>
<line opacity="1" stroke="#FF0000" stroke-width="1" x1="280" y1="109" x2="290" y2="109"/>
<line opacity="1" stroke="#FF0000" stroke-width="1" x1="285" y1="110" x2="285" y2="109"/>
<circle cx="285" cy="110" r="5" opacity="1" fill="none" stroke="#FF0000" stroke-width="1"/>
<line opacity="1" stroke="#FF0000" stroke-width="1" x1="223" y1="110" x2="233" y2="110"/>
<line opacity="1" stroke="#FF0000" stroke-width="1" x1="223" y1="109" x2="233" y2="109"/>
<line opacity="1" stroke="#FF0000" stroke-width="1" x1="228" y1="110" x2="228" y2="109"/>
<circle cx="228" cy="110" r="5" opacity="1" fill="none" stroke="#FF0000" stroke-width="1"/>
<line opacity="1" stroke="#FF0000" stroke-width="1" x1="166" y1="110" x2="176" y2="110"/>
<line opacity="1" stroke="#FF0000" stroke-width="1" x1="166" y1="109" x2="176" y2="109"/>
<line opacity="1" stroke="#FF0000" stroke-width="1" x1="171" y1="110" x2="171" y2="109"/>
<circle cx="171" cy="110" r="5" opacity="1" fill="none" stroke="#FF0000" stroke-width="1"/>
<line opacity="1" stroke="#FF0000" stroke-width="1" x1="109" y1="110" x2="119" y2="110"/>
<line opacity="1" stroke="#FF0000" stroke-width="1" x1="109" y1="109" x2="119" y2="109"/>
<line opacity="1" stroke="#FF0000" stroke-width="1" x1="114" y1="110" x2="114" y2="109"/>
<circle cx="114" cy="110" r="5" opacity="1" fill="none" stroke="#FF0000" stroke-width="1"/>
<line opacity="1" stroke="#FF0000" stroke-width="1" x1="52" y1="110" x2="62" y2="110"/>
<line opacity="1" stroke="#FF0000" stroke-width="1" x1="52" y1="109" x2="62" y2="109"/>
<line opacity="1" stroke="#FF0000" stroke-width="1" x1="57" y1="110" x2="57" y2="109"/>
<circle cx="57" cy="110" r="5" opacity="1" fill="none" stroke="#FF0000" stroke-width="1"/>
<line opacity="1" stroke="#FF0000" stroke-width="1" x1="337" y1="245" x2="347" y2="245"/>
<line opacity="1" stroke="#FF0000" stroke-width="1" x1="337" y1="245" x2="347" y2="245"/>
<line opacity="1" stroke="#FF0000" stroke-width="1" x1="342" y1="245" x2="342" y2="245"/>
<circle cx="342" cy="245" r="5" opacity="1" fill="none" stroke="#FF0000" stroke-width="1"/>
<line opacity="1" stroke="#FF0000" stroke-width="1" x1="280" y1="245" x2="290" y2="245"/>
<line opacity="1" stroke="#FF0000" stroke-width="1" x1="280" y1="245" x2="290" y2="245"/>
<line opacity="1" stroke="#FF0000" stroke-width="1" x1="285" y1="245" x2="285" y2="245"/>
<circle cx="285" cy="245" r="5" opacity="1" fill="none" stroke="#FF0000" stroke-width="1"/>
<line opacity="1" stroke="#FF0000" stroke-width="1" x1="223" y1="245" x2="233" y2="245"/>
<line opacity="1" stroke="#FF0000" stroke-width="1" x1="223" y1="245" x2="233" y2="245"/>
<line opacity="1" stroke="#FF0000" stroke-width="1" x1="228" y1="245" x2="228" y2="245"/>
<circle cx="228" cy="245" r="5" opacity="1" fill="none" stroke="#FF0000" stroke-width="1"/>
<line opacity="1" stroke="#FF0000" stroke-width="1" x1="166" y1="245" x2="176" y2="245"/>
<line opacity="1" stroke="#FF0000" stroke-width="1" x1="166" y1="245" x2="176" y2="245"/>
<line opacity="1" stroke="#FF0000" stroke-width="1" x1="171" y1="245" x2="171" y2="245"/>
<circle cx="171" cy="245" r="5" opacity="1" fill="none" stroke="#FF0000" stroke-width="1"/>
<line opacity="1" stroke="#FF0000" stroke-width="1" x1="109" y1="245" x2="119" y2="245"/>
<line opacity="1" stroke="#FF0000" stroke-width="1" x1="109" y1="245" x2="119" y2="245"/>
<line opacity="1" stroke="#FF0000" stroke-width="1" x1="114" y1="245" x2="114" y2="245"/>
<circle cx="114" cy="245" r="5" opacity="1" fill="none" stroke="#FF0000" stroke-width="1"/>
<line opacity="1" stroke="#FF0000" stroke-width="1" x1="52" y1="245" x2="62" y2="245"/>
<line opacity="1" stroke="#FF0000" stroke-width="1" x1="52" y1="245" x2="62" y2="245"/>
<line opacity="1" stroke="#FF0000" stroke-width="1" x1="57" y1="245" x2="57" y2="245"/>
<circle cx="57" cy="245" r="5" opacity="1" fill="none" stroke="#FF0000" stroke-width="1"/>
</svg>
